<?xml version="1.0" encoding="UTF-8"?>
<svg width="50px" height="50px" viewBox="0 0 50 50" version="1.1" xmlns="http://www.w3.org/2000/svg" xmlns:xlink="http://www.w3.org/1999/xlink">
    <!-- Generator: Sketch 52.2 (67145) - http://www.bohemiancoding.com/sketch -->
    <title>apple</title>
    <desc>Created with Sketch.</desc>
    <g id="О-комплексе" stroke="none" stroke-width="1" fill="none" fill-rule="evenodd">
        <g id="Artboard" transform="translate(-415.000000, -438.000000)" fill-rule="nonzero">
            <g id="apple" transform="translate(415.000000, 438.000000)">
                <circle id="Oval" stroke="#D4D9E5" fill="#FFFFFF" cx="25" cy="25" r="24.5"></circle>
                <path d="M25.34572,20.7950713 C29.5563787,18.9383336 32.79627,21.4086507 32.79627,25.6221094 C32.79627,29.9859629 29.6783746,36.6821383 24.8969351,34.6130077 C20.3570874,36.6137406 17,29.985563 17,25.6221094 C17,21.4446495 20.6042791,19.0423301 24.3961519,20.7574726 C25.6225107,17.5755793 26.6644758,16.0808295 26.6644758,16.0808295 C26.7964713,15.9052354 27.0672622,15.8372376 27.2664556,15.9304345 L28.6752083,16.5888124 C28.8744016,16.6816093 28.893201,16.8660031 28.7180069,16.9983987 C28.7180069,16.9983987 27.552446,17.8767692 26.9572659,18.5611463 L26.956466,18.5611463 C26.2536895,19.3675192 25.6973082,20.207891 25.34572,20.7950713 Z M24.4965485,19.3819187 C24.4965485,19.3819187 22.7894058,19.523914 21.5994457,18.3343539 C20.4086856,17.1435938 20.5518808,15.4364511 20.5518808,15.4364511 C20.5698802,15.2176584 20.7634737,15.0236649 20.9826664,15.0052656 C20.9826664,15.0052656 22.6858092,14.8632703 23.8785692,16.0540304 C25.0677293,17.2443904 24.926934,18.9507332 24.926934,18.9507332 C24.9093346,19.1695258 24.7157411,19.3635193 24.4965485,19.3819187 Z" id="apple_black" fill="#D4D9E5"></path>
            </g>
        </g>
    </g>
</svg>