<?xml version="1.0" encoding="UTF-8"?>
<svg width="50px" height="50px" viewBox="0 0 50 50" version="1.1" xmlns="http://www.w3.org/2000/svg" xmlns:xlink="http://www.w3.org/1999/xlink">
    <!-- Generator: Sketch 52.2 (67145) - http://www.bohemiancoding.com/sketch -->
    <title>car_repair</title>
    <desc>Created with Sketch.</desc>
    <g id="О-комплексе" stroke="none" stroke-width="1" fill="none" fill-rule="evenodd">
        <g id="Artboard" transform="translate(-487.000000, -598.000000)" fill-rule="nonzero">
            <g id="car_repair" transform="translate(487.000000, 598.000000)">
                <circle id="Oval" stroke="#D4D9E5" fill="#FFFFFF" cx="25" cy="25" r="24.5"></circle>
                <path d="M25.0000511,12 C32.1680725,12 38,17.8317461 38,25 C38,32.1682539 32.1681747,38 25.0000511,38 C17.8318253,38 12,32.1682539 12,25 C12,17.8317461 17.8318253,12 25.0000511,12 Z M25.0000511,34.2331809 C30.0991699,34.2331809 34.2331957,30.0994453 34.2331957,25 C34.2331957,19.9005547 30.099272,15.7668191 25.0000511,15.7668191 C19.9006259,15.7668191 15.7668043,19.9005547 15.7668043,25 C15.7668043,30.0994453 19.9006259,34.2331809 25.0000511,34.2331809 Z M25.0000508,17 C29.4111655,17 33,20.5887556 33,25 C33,29.4112444 29.4112672,33 25.0000508,33 C20.5888345,33 17,29.4112444 17,25 C17,20.5887556 20.5887328,17 25.0000508,17 Z M31.9755047,24.4899349 C31.8629596,22.9392029 31.2436061,21.5276535 30.2816358,20.4198861 L27.5413116,23.1602277 C27.8207934,23.5469703 28.0145701,23.99939 28.0938701,24.4899349 L31.9755047,24.4899349 Z M25.5019793,18.0237902 L25.5019793,21.8980277 C25.9924195,21.9773282 26.4447346,22.1710045 26.8314747,22.4503863 L29.5711889,19.7105531 C28.4628186,18.7513217 27.0517865,18.1343026 25.5019793,18.0237902 Z M24.4980207,18.0237902 C22.9482135,18.1343026 21.5369781,18.7514233 20.4286077,19.7106547 L23.1684236,22.4503863 C23.5551637,22.1709028 24.0075805,21.9772265 24.4980207,21.897926 L24.4980207,18.0237902 Z M19.7180592,20.4199878 C18.7562922,21.5277552 18.1369387,22.9392029 18.0243937,24.4898333 L21.9060282,24.4898333 C21.9853282,23.99939 22.1790033,23.5469703 22.458485,23.1603294 L19.7180592,20.4199878 Z M18.0232753,25.4937983 C18.1321604,27.046767 18.7496839,28.4609597 19.7106375,29.5713705 L22.4585867,26.8234038 C22.179105,26.4366612 21.9853282,25.9842416 21.9061299,25.4937983 L18.0232753,25.4937983 Z M24.4980207,31.9762098 L24.4980207,28.0857056 C24.0075805,28.006405 23.5551637,27.8127288 23.1684236,27.5332452 L20.4198644,30.2818219 C21.5296581,31.245425 22.9440452,31.8653924 24.4980207,31.9762098 Z M24.4980207,27.0529687 C24.6592641,27.0922123 24.8267091,27.1151891 25.0000508,27.1151891 C25.1733926,27.1151891 25.3408376,27.0921106 25.502081,27.0529687 L25.502081,27.0602887 C25.7187327,27.0076251 25.9219645,26.9220211 26.1070995,26.8087637 L26.1023212,26.804087 C26.3920713,26.6273892 26.635563,26.3839976 26.8122597,26.0942456 L26.8169364,26.0989223 C26.9303964,25.9136844 27.0158981,25.7103497 27.0685615,25.4936966 L27.0613431,25.4936966 C27.1003832,25.3325539 27.1234615,25.1650061 27.1234615,24.9917649 C27.1234615,24.8185238 27.1004848,24.650976 27.0613431,24.4898333 L27.0685615,24.4898333 C27.0158981,24.2731802 26.9302948,24.0698455 26.8169364,23.8846076 L26.8122597,23.8892843 C26.635563,23.5995323 26.3921729,23.356039 26.1023212,23.1794429 L26.1070995,23.1746645 C25.9219645,23.0614071 25.7187327,22.9759048 25.502081,22.9232412 L25.502081,22.9305612 C25.3408376,22.8914193 25.1733926,22.8683408 25.0000508,22.8683408 C24.8267091,22.8683408 24.6592641,22.8914193 24.4980207,22.9305612 L24.4980207,22.9232412 C24.2813689,22.9758032 24.0780355,23.0615087 23.8927988,23.1747662 L23.8975772,23.1795445 C23.6079287,23.3561407 23.364437,23.599634 23.1877403,23.8893859 L23.1830636,23.8847092 C23.0697052,24.0699471 22.9842035,24.2731802 22.9315402,24.4897316 L22.9387585,24.4897316 C22.8997185,24.6508743 22.8766402,24.8184221 22.8766402,24.9916633 C22.8766402,25.1649044 22.8996168,25.3324522 22.9387585,25.493595 L22.9315402,25.493595 C22.9842035,25.7102481 23.0698069,25.9134811 23.1830636,26.098719 L23.1877403,26.0940423 C23.364437,26.3838959 23.6078271,26.6272875 23.8975772,26.8039854 L23.8927988,26.8087637 C24.0780355,26.9220211 24.2813689,27.0076251 24.4980207,27.0602887 L24.4980207,27.0529687 Z M25.5019793,31.9762098 C27.0558531,31.8653924 28.4702403,31.245425 29.5799323,30.2818219 L26.8314747,27.5333469 C26.4447346,27.8127288 25.9924195,28.006405 25.5019793,28.0857056 L25.5019793,31.9762098 Z M30.2892608,29.5713705 C31.2503161,28.4609597 31.867738,27.046767 31.9767247,25.4937983 L28.0939718,25.4937983 C28.0145701,25.9843432 27.820895,26.4367629 27.5414133,26.8235055 L30.2892608,29.5713705 Z" fill="#D4D9E5"></path>
            </g>
        </g>
    </g>
</svg>