<?xml version="1.0" encoding="UTF-8"?>
<svg width="50px" height="50px" viewBox="0 0 50 50" version="1.1" xmlns="http://www.w3.org/2000/svg" xmlns:xlink="http://www.w3.org/1999/xlink">
    <!-- Generator: Sketch 52.2 (67145) - http://www.bohemiancoding.com/sketch -->
    <title>kinder_garden</title>
    <desc>Created with Sketch.</desc>
    <g id="О-комплексе" stroke="none" stroke-width="1" fill="none" fill-rule="evenodd">
        <g id="Artboard" transform="translate(-415.000000, -678.000000)">
            <g id="kinder_garden" transform="translate(415.000000, 678.000000)">
                <circle id="Oval" stroke="#D4D9E5" fill="#FFFFFF" fill-rule="nonzero" cx="25" cy="25" r="24.5"></circle>
                <path d="M29.7479808,17.7851925 C30.2619334,18.2077282 29.9368817,19 29.2499283,19 L15.7500603,19 C15.0631569,19 14.7380553,18.2077746 15.2520078,17.7851925 L22.0019418,12.1761995 C22.2861432,11.9412668 22.7138454,11.9412668 22.9980468,12.1761995 L29.7479808,17.7851925 Z M29.2498475,36.4591959 C29.6643989,36.4591959 29.99985,36.803771 30,37.2295979 C30,37.6554248 29.6645489,38 29.2499975,38 L27.7499925,38 C27.3354411,38 26.99999,37.6554248 26.99999,37.2295979 L26.99999,33.377639 L25.499985,33.377639 L25.499985,37.2295979 C25.499985,37.6554248 25.1645339,38 24.7499825,38 C24.3354311,38 23.99998,37.6554248 23.99998,37.2295979 L23.99998,36.4591959 L21.00002,36.4591959 L21.00002,37.2295979 C21.00002,37.6554248 20.6645689,38 20.2500175,38 C19.8354661,38 19.500015,37.6554248 19.500015,37.2295979 L19.500015,33.377639 L18.00001,33.377639 L18.00001,37.2295979 C18.00001,37.6554248 17.6645589,38 17.2500075,38 L15.7500025,38 C15.3354511,38 15,37.6554248 15,37.2295979 C15,36.803771 15.3354511,36.4591959 15.7500025,36.4591959 L16.500005,36.4591959 C16.500005,30.832436 16.500005,26.4605584 16.500005,21 L28.499845,21 C28.499845,26.4615343 28.499845,30.8321792 28.499845,36.4591959 L29.2498475,36.4591959 Z M19.499965,31.8368862 L19.499965,30.2960821 L17.99996,30.2960821 L17.99996,31.8368862 L19.499965,31.8368862 Z M23.99993,34.9184431 L23.99993,33.377639 L20.99997,33.377639 L20.99997,34.9184431 L23.99993,34.9184431 Z M23.99993,31.8368862 L23.99993,30.2960821 L20.99997,30.2960821 L20.99997,31.8368862 L23.99993,31.8368862 Z M22.499925,28.7039692 C24.1544805,28.7039692 25.499885,27.3219193 25.499885,25.6224124 C25.499885,23.9229054 24.1544805,22.5408555 22.499925,22.5408555 C20.8454195,22.5408555 19.499965,23.9228541 19.499965,25.6224124 C19.499965,27.3219193 20.8453695,28.7039692 22.499925,28.7039692 Z M26.99989,31.8368862 L26.99989,30.2960821 L25.499885,30.2960821 L25.499885,31.8368862 L26.99989,31.8368862 Z M39.4434261,34.9974227 C40.301542,34.9974227 41,35.6709845 41,36.4986363 C41,37.326288 40.3014901,38 39.4433742,38 L35.9443907,38 C34.6971702,38 33.5745836,37.2853008 33.0827936,36.1797966 L30.9599711,29.9017441 C30.779662,29.493223 30.4245956,29.1439057 30,29.014338 L30,26 C31.5626966,26.2425703 32.9108384,27.2347716 33.5479653,28.6692245 L35.2664802,34.0876463 C35.5104553,34.6403984 36.0721378,34.9974227 36.6969155,34.9974227 L39.4434261,34.9974227 Z" fill="#D4D9E5"></path>
            </g>
        </g>
    </g>
</svg>