<?xml version="1.0" encoding="UTF-8"?>
<svg width="50px" height="50px" viewBox="0 0 50 50" version="1.1" xmlns="http://www.w3.org/2000/svg" xmlns:xlink="http://www.w3.org/1999/xlink">
    <!-- Generator: Sketch 52.2 (67145) - http://www.bohemiancoding.com/sketch -->
    <title>medicine</title>
    <desc>Created with Sketch.</desc>
    <g id="О-комплексе" stroke="none" stroke-width="1" fill="none" fill-rule="evenodd">
        <g id="Artboard" transform="translate(-487.000000, -438.000000)" fill-rule="nonzero">
            <g id="medicine" transform="translate(487.000000, 438.000000)">
                <circle id="Oval" stroke="#D4D9E5" fill="#FFFFFF" cx="25" cy="25" r="24.5"></circle>
                <path d="M15.7365522,19.5937118 C16.2275349,19.102651 16.8153069,18.8570032 17.4999853,18.8570032 L17.8571205,18.8570032 L17.8571205,33.1427231 L17.4999853,33.1427231 C16.8154632,33.1427231 16.2276522,32.8971927 15.7365522,32.4061318 C15.2454913,31.9150709 15,31.3272599 15,30.6426987 L15,21.3570277 C15,20.6726228 15.2454913,20.0848118 15.7365522,19.5937118 Z M29.2856417,17.0713664 L29.2856417,18.8570032 L31.0712785,18.8570032 L31.0712785,33.1427231 L18.9286433,33.1427231 L18.9286433,18.8570032 L20.7143583,18.8570032 L20.7143583,17.0713664 C20.7143583,16.7736886 20.8184967,16.5206918 21.0268516,16.3124542 C21.2352456,16.1040993 21.4882033,16 21.7857638,16 L28.2143534,16 C28.5118749,16 28.7649889,16.1040993 28.9731484,16.3124542 C29.1815424,16.5208091 29.2856417,16.7737277 29.2856417,17.0713664 Z M22.142899,17.4285016 L22.142899,18.8570032 L27.8571792,18.8570032 L27.8571792,17.4285016 L22.142899,17.4285016 Z M29.2856417,27.0713078 L29.2856417,27.0712687 L29.2854071,27.0712687 L29.2854071,24.9284967 C29.2854071,24.8241238 29.2519844,24.7385537 29.185217,24.6716299 C29.1183714,24.6048234 29.0327621,24.5714006 28.9286629,24.5714006 L26.4286775,24.5714006 L26.4286775,22.0713762 C26.4286775,21.9671597 26.3949811,21.8816677 26.3280964,21.8146658 C26.2613291,21.7477029 26.1757198,21.7142801 26.0715424,21.7142801 L23.9286531,21.7142801 C23.8243584,21.7142801 23.7389055,21.7477029 23.6719426,21.8146658 C23.6049407,21.8816677 23.5714788,21.9671597 23.5714788,22.0713762 L23.5714788,24.5714397 L21.0714935,24.5714397 C20.9673942,24.5714397 20.881785,24.6048625 20.8149785,24.671669 C20.7479766,24.7385928 20.7145147,24.8241629 20.7145147,24.9285358 L20.7145147,27.0713078 C20.7145147,27.1756807 20.7479766,27.2609772 20.8149785,27.3281746 C20.8819413,27.3949029 20.9673942,27.4284821 21.0716889,27.4284821 L23.5716743,27.4284821 L23.5716743,29.9284674 C23.5716743,30.0325276 23.6051753,30.1181368 23.6720599,30.1850215 C23.7390228,30.2519062 23.8245147,30.2853681 23.9287704,30.2853681 L26.0716987,30.2853681 C26.1759153,30.2853681 26.2615636,30.2519062 26.3281746,30.1850215 C26.3950593,30.1181759 26.4287557,30.0325276 26.4287557,29.9284674 L26.4287557,27.4284821 L28.9287411,27.4284821 C29.0328403,27.4284821 29.1184105,27.3949029 29.1852951,27.3281746 C29.2522189,27.2610163 29.2856417,27.1756807 29.2856417,27.0713078 Z M34.2634478,19.5937118 C34.7543523,20.0848118 34.9999609,20.6726228 35,21.3570277 L35,30.6426987 C35,31.3272208 34.7543914,31.9150709 34.2634478,32.4061318 C33.7723478,32.8972318 33.1845368,33.1427231 32.5000147,33.1427231 L32.1428404,33.1427231 L32.1428404,18.8570032 L32.5000147,18.8570032 C33.1844977,18.8570032 33.7723478,19.102651 34.2634478,19.5937118 Z" fill="#D4D9E5"></path>
            </g>
        </g>
    </g>
</svg>