<?xml version="1.0" encoding="UTF-8"?>
<svg width="50px" height="50px" viewBox="0 0 50 50" version="1.1" xmlns="http://www.w3.org/2000/svg" xmlns:xlink="http://www.w3.org/1999/xlink">
    <!-- Generator: Sketch 52.2 (67145) - http://www.bohemiancoding.com/sketch -->
    <title>parks_grey</title>
    <desc>Created with Sketch.</desc>
    <g id="О-комплексе" stroke="none" stroke-width="1" fill="none" fill-rule="evenodd">
        <g id="Artboard" transform="translate(-415.000000, -598.000000)" fill-rule="nonzero">
            <g id="parks_grey" transform="translate(415.000000, 598.000000)">
                <circle id="Oval" stroke="#D4D9E5" fill="#FFFFFF" cx="25" cy="25" r="24.5"></circle>
                <path d="M34.9361588,29.3775956 L32.245335,25.4364967 L33.2434222,25.4364967 C33.3794771,25.4364967 33.5043992,25.3612232 33.5679149,25.2408714 C33.6314696,25.1205588 33.6232274,24.9749727 33.5465086,24.8626288 L31.7780688,22.2724691 L32.1077567,22.2724691 C32.2438116,22.2724691 32.3687336,22.1971956 32.4322884,22.0768439 C32.4958431,21.9565312 32.4876009,21.8109451 32.4108821,21.6985231 L30.820216,19.3687935 C30.7601768,19.2809027 30.6606064,19.2282855 30.5541609,19.2282855 C30.4477155,19.2282855 30.348145,19.2808637 30.2881059,19.3687935 L28.6974788,21.6985231 C28.62076,21.810906 28.6125178,21.9564921 28.6760335,22.0768439 C28.7395882,22.1971565 28.8644322,22.2724691 29.0005261,22.2724691 L29.330214,22.2724691 L27.5617742,24.8626288 C27.4850554,24.9750117 27.4768132,25.1205978 27.5403679,25.2408714 C27.6039227,25.3611841 27.7287666,25.4364967 27.8648996,25.4364967 L28.8629868,25.4364967 L26.1722411,29.3775956 C26.0955223,29.4899785 26.0872801,29.6355647 26.1507958,29.7559164 C26.2143115,29.876229 26.3391945,29.9515416 26.4752884,29.9515416 L29.4973236,29.9515416 L29.4973236,33.2975616 L21.6907509,33.2975616 L21.6907509,30.8158787 L23.0563777,29.6834163 C23.1553231,29.6013849 23.1690341,29.454666 23.0869637,29.3556815 L22.5540724,28.7130635 C22.472041,28.614118 22.3253221,28.6004071 22.2263376,28.6824775 L21.6907509,29.1266187 L21.6907509,26.900483 C21.9704388,27.0284519 22.2814939,27.099741 22.6091896,27.099741 C23.8304803,27.099741 24.8205597,26.1097007 24.8205597,24.888371 C24.8205597,24.7257536 24.8024737,24.5673549 24.7691924,24.4147375 C25.7207171,24.167706 26.4232962,23.3030955 26.4232962,22.2743051 C26.4232962,21.2327021 25.7029437,20.3598104 24.7333721,20.1253179 C24.7897393,19.9302004 24.8205206,19.7241845 24.8205206,19.510864 C24.8205206,18.2895733 23.8304803,17.2994939 22.6091506,17.2994939 C22.3937597,17.2994939 22.1857906,17.3305877 21.9889935,17.3880096 C21.9918451,17.3530486 21.9937201,17.3177752 21.9937201,17.282072 C21.9937201,16.5740242 21.4197349,16 20.7116481,16 C20.0035612,16 19.4295761,16.5739851 19.4295761,17.282072 C19.4295761,17.3177752 19.4314511,17.3530096 19.4343027,17.3880096 C19.2375055,17.3305877 19.0294584,17.2995329 18.8141456,17.2995329 C17.5928549,17.2995329 16.6027755,18.2895733 16.6027755,19.510903 C16.6027755,19.7241845 16.6335959,19.9301614 16.6899241,20.1253569 C15.7203525,20.3598104 15,21.2326631 15,22.2743051 C15,23.3030955 15.7026181,24.167706 16.6541037,24.4147375 C16.6207834,24.567394 16.6026974,24.7257145 16.6026974,24.888371 C16.6026974,26.1096616 17.5927378,27.099741 18.8140675,27.099741 C19.1418023,27.099741 19.4527792,27.0284519 19.7325062,26.900483 L19.7325062,33.2974835 L16.1022671,33.2974835 C15.7432041,33.2974835 15.45211,33.5885776 15.45211,33.9476406 C15.45211,34.3067036 15.7432041,34.5977977 16.1022671,34.5977977 L34.2198298,34.5977977 C34.5788927,34.5977977 34.8699869,34.3067036 34.8699869,33.9476406 C34.8699869,33.5885776 34.5788927,33.2974835 34.2198298,33.2974835 L31.6110373,33.2974835 L31.6110373,29.9514635 L34.6330725,29.9514635 L34.6330725,29.9515026 C34.7691274,29.9515026 34.8940494,29.876229 34.957526,29.7558773 C35.0210418,29.6355647 35.0128386,29.4899785 34.9361588,29.3775956 Z" fill="#D4D9E5"></path>
            </g>
        </g>
    </g>
</svg>