<?xml version="1.0" encoding="UTF-8"?>
<svg width="50px" height="50px" viewBox="0 0 50 50" version="1.1" xmlns="http://www.w3.org/2000/svg" xmlns:xlink="http://www.w3.org/1999/xlink">
    <!-- Generator: Sketch 52.2 (67145) - http://www.bohemiancoding.com/sketch -->
    <title>party</title>
    <desc>Created with Sketch.</desc>
    <g id="О-комплексе" stroke="none" stroke-width="1" fill="none" fill-rule="evenodd">
        <g id="Artboard" transform="translate(-487.000000, -678.000000)">
            <g id="party" transform="translate(487.000000, 678.000000)">
                <circle id="Oval" stroke="#D4D9E5" fill="#FFFFFF" fill-rule="nonzero" cx="25" cy="25" r="24.5"></circle>
                <path d="M28.544626,40.997718 C28.2142722,40.9708408 27.9718564,40.7177903 28.0026347,40.4322843 L28.8043362,33 L30,33.0966055 L29.1980054,40.5288898 C29.169279,40.7956325 28.9104481,40.9994929 28.6009063,41 C28.5821462,41 28.5633861,40.9992393 28.544626,40.997718 Z M23.0741269,30 L24,31.7296126 L21,32 L21.6096757,30.1324844 C21.6674091,30.1341099 21.7251425,30.1349228 21.782876,30.1349228 C21.9697078,30.1349228 22.1573414,30.1265239 22.3457769,30.1094554 C22.5906094,30.0872392 22.8338382,30.0506637 23.0741269,30 Z M21.7150586,29 C18.348224,29 15.4040311,25.9883238 15.03776,22.0504639 C14.6538902,17.9265779 17.2406113,14.3244595 20.8035054,14.0205555 C22.5108458,13.875313 24.1931632,14.5033814 25.540557,15.7900402 C26.9146237,17.1019585 27.7747558,18.934329 27.9622911,20.9498313 C28.3458858,25.0739805 25.7591647,28.6760988 22.1959956,28.9797397 C22.0348583,28.993422 21.874546,29 21.7150586,29 Z M30.3980747,30.1391398 L31,32 L28,31.7179453 L28.9337731,30 C29.1741688,30.0515033 29.4169712,30.0892544 29.6616454,30.112714 C29.8619307,30.1315896 30.0614137,30.1410274 30.2606293,30.1410274 C30.3063553,30.1410274 30.3523487,30.1402184 30.3980747,30.1391398 Z M26,28.6268643 C27.8443168,26.9210729 28.9198608,24.1679121 28.6531491,21.1779088 C28.4834235,19.2752752 27.7974051,17.5121154 26.697351,16.1134297 C27.8374646,15.2863235 29.1583728,14.9000073 30.4679484,15.0221127 C33.8817003,15.3402709 36.3456211,18.9536959 35.9603123,23.0765951 C35.7718746,25.0915973 34.9401136,26.9205466 33.617624,28.2268639 C32.3209623,29.508181 30.7059332,30.1297606 29.0703474,29.9773921 C27.9428842,29.8723919 26.8915867,29.4076546 26,28.6268643 Z M22,32.0920327 L23.2177667,32 L23.9975673,39.43462 C24.0274219,39.7200989 23.7790321,39.9723649 23.4425714,39.9977182 C23.4243602,39.9992394 23.4058504,40 23.3879376,40 C23.0714795,39.999493 22.8075653,39.7943842 22.7795021,39.5266527 L22,32.0920327 Z" fill="#D4D9E5"></path>
            </g>
        </g>
    </g>
</svg>