<?xml version="1.0" encoding="UTF-8"?>
<svg width="50px" height="50px" viewBox="0 0 50 50" version="1.1" xmlns="http://www.w3.org/2000/svg" xmlns:xlink="http://www.w3.org/1999/xlink">
    <!-- Generator: Sketch 52.2 (67145) - http://www.bohemiancoding.com/sketch -->
    <title>post</title>
    <desc>Created with Sketch.</desc>
    <g id="О-комплексе" stroke="none" stroke-width="1" fill="none" fill-rule="evenodd">
        <g id="Artboard" transform="translate(-487.000000, -518.000000)" fill-rule="nonzero">
            <g id="post" transform="translate(487.000000, 518.000000)">
                <circle id="Oval" stroke="#D4D9E5" fill="#FFFFFF" cx="25" cy="25" r="24.5"></circle>
                <path d="M35,29.6626183 C35,30.1097233 34.8760969,30.5242106 34.6776117,30.8888889 L28.3333333,23.6840135 L34.6088273,18.1111111 C34.8529479,18.5043298 35,18.9662303 35,19.4653721 L35,29.6626183 Z M25.2773898,25.3333333 L33.8888889,17.3314389 C33.5355064,17.1259919 33.1375681,17 32.7083062,17 L17.8464734,17 C17.4166806,17 17.0186198,17.1259919 16.6666667,17.3314389 L25.2773898,25.3333333 Z M27.4425503,24.7778628 L25.4145947,26.5948177 C25.2959729,26.7005594 25.1482669,26.7533665 25.0000208,26.7533665 C24.8516915,26.7533665 24.7039855,26.7005594 24.5853637,26.5948177 L22.5569511,24.7777778 L16.1111111,32.1589072 C16.4974734,32.4069559 16.9502723,32.5555556 17.4399665,32.5555556 L32.5600335,32.5555556 C33.0496446,32.5555556 33.5026512,32.4069559 33.8888889,32.1589072 L27.4425503,24.7778628 Z M15.3912896,18.1111111 C15.1471892,18.5043272 15,18.9662247 15,19.4654052 L15,29.6626264 C15,30.1097284 15.1233341,30.524213 15.322582,30.8888889 L21.6666667,23.6827999 L15.3912896,18.1111111 Z" fill="#D4D9E5"></path>
            </g>
        </g>
    </g>
</svg>