<?xml version="1.0" encoding="UTF-8"?>
<svg width="50px" height="50px" viewBox="0 0 50 50" version="1.1" xmlns="http://www.w3.org/2000/svg" xmlns:xlink="http://www.w3.org/1999/xlink">
    <!-- Generator: Sketch 52.2 (67145) - http://www.bohemiancoding.com/sketch -->
    <title>restaurant</title>
    <desc>Created with Sketch.</desc>
    <g id="О-комплексе" stroke="none" stroke-width="1" fill="none" fill-rule="evenodd">
        <g id="Artboard" transform="translate(-415.000000, -358.000000)" fill-rule="nonzero">
            <g id="restaurant" transform="translate(415.000000, 358.000000)">
                <circle id="Oval" stroke="#D4D9E5" fill="#FFFFFF" cx="25" cy="25" r="24.5"></circle>
                <path d="M16.2109375,28.1328125 C16.2109375,28.456604 16.4730835,28.71875 16.796875,28.71875 L33.2421875,28.71875 C33.565979,28.71875 33.828125,28.456604 33.828125,28.1328125 C33.828125,23.829834 30.6791687,20.2466125 26.590271,19.4952698 C26.6950989,19.2702027 26.7578125,19.0220947 26.7578125,18.7578125 C26.7578125,17.7885742 25.9692383,17 25,17 C24.0307617,17 23.2421875,17.7885742 23.2421875,18.7578125 C23.2421875,19.0220947 23.3049011,19.2702027 23.409729,19.4952698 C19.3208313,20.2466125 16.2109375,23.829834 16.2109375,28.1328125 Z M24.4140625,18.7578125 C24.4140625,18.4344788 24.6766663,18.171875 25,18.171875 C25.3233337,18.171875 25.5859375,18.4344788 25.5859375,18.7578125 C25.5859375,19.0811462 25.3233338,19.34375 25,19.34375 C24.6766662,19.34375 24.4140625,19.0811462 24.4140625,18.7578125 Z M34.4140625,29.890625 C34.737854,29.890625 35,30.152771 35,30.4765625 C35,30.800354 34.737854,31.0625 34.4140625,31.0625 L15.5859375,31.0625 C15.262146,31.0625 15,30.800354 15,30.4765625 C15,30.152771 15.262146,29.890625 15.5859375,29.890625 L34.4140625,29.890625 Z" id="resorant_grey" fill="#D4D9E5"></path>
            </g>
        </g>
    </g>
</svg>