<?xml version="1.0" encoding="UTF-8"?>
<svg width="50px" height="50px" viewBox="0 0 50 50" version="1.1" xmlns="http://www.w3.org/2000/svg" xmlns:xlink="http://www.w3.org/1999/xlink">
    <!-- Generator: Sketch 52.2 (67145) - http://www.bohemiancoding.com/sketch -->
    <title>school</title>
    <desc>Created with Sketch.</desc>
    <g id="О-комплексе" stroke="none" stroke-width="1" fill="none" fill-rule="evenodd">
        <g id="Artboard" transform="translate(-487.000000, -358.000000)" fill-rule="nonzero">
            <g id="school" transform="translate(487.000000, 358.000000)">
                <circle id="Oval" stroke="#D4D9E5" fill="#FFFFFF" cx="25" cy="25" r="24.5"></circle>
                <path d="M20,30 L31,30 L31,33 L20,33 L20,30 Z M33.9835419,17.2730256 L32.7774884,22.0585247 C33.244924,23.0353006 33.5087005,24.1203158 33.5107698,25.263646 L33.5266704,34.0961628 C33.5275417,34.5983428 33.3252985,35.0709459 32.9572964,35.4267092 C32.5890766,35.7824725 32.099097,35.9789185 31.5776428,35.9797576 L19.4452287,36 C19.4449019,36 19.4421792,36 19.4418525,36 C18.3672517,36 17.4913001,35.1578939 17.4893398,34.1230128 L17.473548,25.2904961 C17.4714787,24.1443341 17.7278495,23.0363495 18.2146708,22.0268501 L17.0164588,17.2730256 C16.9541631,17.0257113 17.0726556,16.7688527 17.3050665,16.6476079 L19.309093,15.6020287 C19.4679906,15.5190662 19.6578182,15.5120391 19.8229236,15.5826254 C19.9880289,15.6533166 20.1097887,15.793755 20.1524809,15.9629313 L20.9038411,18.9441273 C21.2616057,18.7026865 21.6378848,18.4919764 22.028322,18.3112629 L22.028322,17.9162734 C22.0282131,16.3082063 23.3866296,15 25.0564157,15 L25.9435849,15 C27.613371,15 28.9717875,16.3082063 28.9717875,17.9162734 L28.9717875,18.3243733 C29.3637495,18.5074991 29.7388305,18.7193629 30.0923477,18.9589158 L30.8474108,15.9629313 C30.890103,15.793755 31.0117539,15.6533166 31.1769681,15.5826254 C31.3420735,15.5119342 31.5317922,15.5190662 31.6907988,15.6020287 L33.6948252,16.6476079 C33.927345,16.7689576 34.0458376,17.0257113 33.9835419,17.2730256 Z M23,17.9909594 C23.7933152,17.7525724 24.6248967,17.6268364 25.4760836,17.6254089 L25.4915555,17.6254089 C26.363529,17.6254089 27.2052675,17.7574496 28,18 C27.980985,16.8940701 27.0832644,16 25.9808669,16 L25.0187788,16 C23.9192158,15.999881 23.0237392,16.8891929 23,17.9909594 Z M32,29.5434606 C32,29.2433224 31.7378251,29 31.4144322,29 L19.5855678,29 C19.2621749,29 19,29.2433224 19,29.5434606 L19,33.4565394 C19,33.7566776 19.2621749,34 19.5855678,34 L31.4144322,34 C31.7378251,34 32,33.7566776 32,33.4565394 L32,29.5434606 Z M32,25.4215082 C32,21.8806665 29.0841224,19 25.5,19 C21.9158776,19 19,21.8806665 19,25.4215082 C19,25.7409932 19.2621727,26 19.5855629,26 C19.9089531,26 20.1711258,25.7409932 20.1711258,25.4215082 C20.1711258,22.5186628 22.5615628,20.1570919 25.4998905,20.1570919 C28.4382181,20.1570919 30.8286552,22.5186628 30.8286552,25.4215082 C30.8286552,25.7409932 31.0908279,26 31.4142181,26 C31.7376082,26 32,25.7409932 32,25.4215082 Z" fill="#D4D9E5"></path>
            </g>
        </g>
    </g>
</svg>