<?xml version="1.0" encoding="UTF-8"?>
<svg width="50px" height="50px" viewBox="0 0 50 50" version="1.1" xmlns="http://www.w3.org/2000/svg" xmlns:xlink="http://www.w3.org/1999/xlink">
    <!-- Generator: Sketch 52.2 (67145) - http://www.bohemiancoding.com/sketch -->
    <title>sport</title>
    <desc>Created with Sketch.</desc>
    <g id="О-комплексе" stroke="none" stroke-width="1" fill="none" fill-rule="evenodd">
        <g id="Artboard" transform="translate(-415.000000, -518.000000)" fill-rule="nonzero">
            <g id="sport" transform="translate(415.000000, 518.000000)">
                <circle id="Oval" stroke="#D4D9E5" fill="#FFFFFF" cx="25" cy="25" r="24.5"></circle>
                <path d="M21.4005422,24.1774401 L28.5994578,24.1774401 L28.5994578,27.7255279 L21.4005422,27.7255279 L21.4005422,24.1774401 Z M33.9544092,23.2124715 C34.5314284,23.2130066 34.9992865,23.6806863 35,24.2578838 L35,27.3989369 C34.9994649,27.9763128 34.5316068,28.4439926 33.9544092,28.444706 L33.45498,28.444706 L33.45498,23.2124715 L33.9544092,23.2124715 Z M31.4961473,21 C32.0733447,21.0007135 32.5412029,21.4683932 32.541738,22.0455908 L32.541738,29.8573773 C32.5412029,30.4345748 32.0733447,30.9022546 31.4961473,30.902968 L29.5126998,30.902968 L29.5126998,21 L31.4961473,21 Z M17.458262,22.0455908 C17.4587971,21.4683932 17.9266553,21.0007135 18.5038527,21 L20.4873002,21 L20.4873002,30.902968 L18.5038527,30.902968 C17.9266553,30.9024329 17.4587971,30.4345748 17.458262,29.8573773 L17.458262,22.0455908 Z M15,24.2580622 C15.0007135,23.6808647 15.4683932,23.2130066 16.0455908,23.2124715 L16.54502,23.2124715 L16.54502,28.444706 L16.0455908,28.444706 C15.4683932,28.4439926 15.0005351,27.9763128 15,27.3989369 L15,24.2580622 Z" id="sport_grey" fill="#D4D9E5"></path>
            </g>
        </g>
    </g>
</svg>