<?xml version="1.0" encoding="utf-8"?>
<!-- Generator: Adobe Illustrator 23.0.0, SVG Export Plug-In . SVG Version: 6.00 Build 0)  -->
<svg version="1.1" id="Слой_1" xmlns="http://www.w3.org/2000/svg" xmlns:xlink="http://www.w3.org/1999/xlink" x="0px" y="0px"
	 width="80px" height="80px" viewBox="0 0 80 80" style="enable-background:new 0 0 80 80;" xml:space="preserve">
<style type="text/css">
	.st0{fill:#F9FAFB;}
</style>
<title>arrow30_right</title>
<desc>Created with Sketch.</desc>
<g id="Галлерея">
	<g id="галлерея_A136" transform="translate(-1034.000000, -305.000000)">
		<g id="Group-6" transform="translate(1009.000000, 272.000000)">
			<polygon id="arrow30_right" class="st0" points="50,73.9 76.4,73.9 71.2,79.2 72.5,80.5 80,73 72.5,65.5 71.2,66.8 76.4,72.1 
				50,72.1 			"/>
		</g>
	</g>
</g>
<g>
	<path class="st0" d="M40,1c21.5,0,39,17.5,39,39S61.5,79,40,79S1,61.5,1,40S18.5,1,40,1 M40,0C17.9,0,0,17.9,0,40s17.9,40,40,40
		s40-17.9,40-40S62.1,0,40,0L40,0z"/>
</g>
</svg>
