<?xml version="1.0" encoding="UTF-8"?>
<svg width="17px" height="21px" viewBox="0 0 17 21" version="1.1" xmlns="http://www.w3.org/2000/svg" xmlns:xlink="http://www.w3.org/1999/xlink">
    <!-- Generator: Sketch 52.2 (67145) - http://www.bohemiancoding.com/sketch -->
    <title>call_dark</title>
    <desc>Created with Sketch.</desc>
    <g id="Документация" stroke="none" stroke-width="1" fill="none" fill-rule="evenodd">
        <g id="новости_и_акции_A136" transform="translate(-1377.000000, -46.000000)" fill="#341325">
            <g id="top" transform="translate(40.000000, 30.000000)">
                <g id="phone" transform="translate(1170.000000, 0.000000)">
                    <path d="M172.426703,15.3123008 C172.37003,15.3123008 172.312634,15.3197161 172.255239,15.3348999 L170.808075,15.7282647 C170.718192,15.7529824 170.640581,15.7847623 170.577771,15.8232513 C166.670899,18.2229883 169.663773,26.0376704 170.674152,28.3756131 C172.78696,33.2647771 176.298921,38.1479383 179.820989,37.1913627 C179.884522,37.1744134 179.953469,37.1447522 180.025303,37.1034383 L181.343597,36.3499011 C181.621912,36.1906484 181.737064,35.8520157 181.611082,35.5617591 L180.10905,32.0889201 C179.970796,31.7690023 179.60729,31.5935065 179.263999,31.6817841 L176.916916,32.1966188 L176.855189,32.1945001 C175.935416,32.1581297 174.571638,29.442006 173.590137,27.1700949 C172.943625,25.6739669 172.485543,24.4324314 172.229248,23.4793869 C172.154526,23.2018423 172.096408,22.9468967 172.0567,22.7216124 L172.0567,22.7212593 C171.933607,22.0235135 171.977646,21.5800071 172.191345,21.364963 L172.271483,21.3003438 L174.21824,20.0542179 C174.535901,19.865657 174.660439,19.4888884 174.522545,19.1689706 L173.020152,15.6957785 C172.917273,15.4591947 172.679388,15.3123008 172.426703,15.3123008" id="call_dark" transform="translate(175.143415, 26.312301) rotate(-15.000000) translate(-175.143415, -26.312301) "></path>
                </g>
            </g>
        </g>
    </g>
</svg>