<?xml version="1.0" encoding="utf-8"?>
<!-- Generator: Adobe Illustrator 23.0.0, SVG Export Plug-In . SVG Version: 6.00 Build 0)  -->
<svg version="1.1" id="Слой_1" xmlns="http://www.w3.org/2000/svg" xmlns:xlink="http://www.w3.org/1999/xlink" x="0px" y="0px"
	 width="20px" height="16px" viewBox="0 0 20 16" style="enable-background:new 0 0 20 16;" xml:space="preserve">
<style type="text/css">
	.st0{fill:#3B152A;}
</style>
<title>CCTV_green</title>
<desc>Created with Sketch.</desc>
<g id="Документация">
	<g id="Документация_metropolis" transform="translate(-1349.000000, -153.000000)">
		<g id="Group-36" transform="translate(1349.000000, 153.000000)">
			<path id="CCTV_green" class="st0" d="M1.4,7.4l2.1,3.1l-2.1,0.9L0,8L1.4,7.4z M18.3,2.3c0.8,1.9-0.1,4.1-2,4.9l-2.3,1v3.3
				c-0.5-0.4-1.1-0.6-1.8-0.6c-0.7,0-1.3,0.2-1.8,0.6V9.6l-4.7,2L1.5,5.3l12-5C15.3-0.5,17.5,0.4,18.3,2.3z M14.7,12.3L14.7,12.3
				l5.3,0v3.6h-5.3c0.3-0.5,0.6-1.1,0.6-1.8C15.3,13.4,15.1,12.8,14.7,12.3z M12.2,16c-1.1,0-1.9-0.9-1.9-1.9s0.9-1.9,1.9-1.9
				s1.9,0.9,1.9,1.9S13.2,16,12.2,16z"/>
		</g>
	</g>
</g>
</svg>
