<?xml version="1.0" encoding="utf-8"?>
<!-- Generator: Adobe Illustrator 23.0.0, SVG Export Plug-In . SVG Version: 6.00 Build 0)  -->
<svg version="1.1" id="Слой_1" xmlns="http://www.w3.org/2000/svg" xmlns:xlink="http://www.w3.org/1999/xlink" x="0px" y="0px"
	 width="70px" height="70px" viewBox="0 0 70 70" style="enable-background:new 0 0 70 70;" xml:space="preserve">
<style type="text/css">
	.st0{fill:#F4F3F8;}
	.st1{fill:#354453;}
</style>
<title>icon_rose</title>
<desc>Created with Sketch.</desc>
<g id="Выбор-по-плану">
	<g id="выбор_по_плану_этажа_metropolis" transform="translate(-89.000000, -351.000000)">
		<g id="Group-6" transform="translate(0.000000, 266.000000)">
			<g id="Group-7" transform="translate(60.000000, 60.000000)">
				<g id="icon_rose" transform="translate(29.000000, 25.000000)">
					<polygon id="Shape" class="st0" points="50.1,40.3 42.8,42.8 40.3,50.1 60.6,60.6 					"/>
					<polygon class="st0" points="40.3,19.8 42.8,27.1 50.1,29.6 60.6,9.3 					"/>
					<polygon class="st0" points="19.8,29.6 27.1,27.1 29.6,19.8 9.3,9.3 					"/>
					<polygon class="st0" points="29.6,50.1 27.1,42.8 19.8,40.3 9.3,60.6 					"/>
					<path class="st1" d="M69.9,35l-25-8.3l12.2-12.2l-1.6-1.6L43.3,25L35,0l-8.3,25L14.4,12.9l-1.6,1.6L25,26.6L0,35l25,8.3
						L12.9,55.5l1.6,1.6l12.2-12.2l8.3,25l8.3-25l12.2,12.2l1.6-1.6L44.9,43.3L69.9,35z M59.5,33.8H42.8v2.2h16.7l-16.3,5.4
						l-5.4-5.4h2.9v-2.2h-2.9l5.4-5.4L59.5,33.8z M35,7.1l6.6,19.7L35,33.4l-6.6-6.6L35,7.1z M32.3,33.8H10.5l16.3-5.4L32.3,33.8z
						 M10.5,36.1h21.8l-5.4,5.4L10.5,36.1z M35,62.8l-6.6-19.7l6.6-6.6l6.6,6.6L35,62.8z"/>
				</g>
			</g>
		</g>
	</g>
</g>
</svg>
