<?xml version="1.0" encoding="utf-8"?>
<!-- Generator: Adobe Illustrator 23.0.0, SVG Export Plug-In . SVG Version: 6.00 Build 0)  -->
<svg version="1.1" id="Слой_1" xmlns="http://www.w3.org/2000/svg" xmlns:xlink="http://www.w3.org/1999/xlink" x="0px" y="0px"
	 width="235px" height="78px" viewBox="0 0 235 78" style="enable-background:new 0 0 235 78;" xml:space="preserve">
<style type="text/css">
	.st0{fill:#2E00FF;}
</style>
<title>Logo_DIM</title>
<desc>Created with Sketch.</desc>
<g id="О-застройщике">
	<g id="о_застройщике_A136" transform="translate(-1021.000000, -394.000000)">
		<g transform="translate(-2.000000, 0.000000)">
			<g id="Logo_DIM" transform="translate(1023.000000, 394.000000)">
				<path id="Fill-1" class="st0" d="M150.5,48.3c0.5,0,1-0.2,1.3-0.5c0.3-0.4,0.5-0.9,0.5-1.4c0-0.6-0.2-1.1-0.5-1.4
					c-0.3-0.4-0.8-0.6-1.3-0.6s-1,0.2-1.3,0.6c-0.3,0.4-0.5,0.8-0.5,1.4c0,0.6,0.2,1,0.5,1.4C149.6,48.1,150,48.3,150.5,48.3z
					 M152.3,40h1.7v9.8h-1.7V49c-0.5,0.7-1.2,1-2.1,1c-0.9,0-1.6-0.3-2.3-1.1c-0.6-0.7-0.9-1.6-0.9-2.6s0.3-1.9,0.9-2.6
					c0.6-0.7,1.4-1.1,2.3-1.1c0.9,0,1.6,0.3,2.1,1V40z"/>
				<path id="Fill-3" class="st0" d="M161.3,44.9c-0.2-0.9-0.9-1.3-1.7-1.3c-0.9,0-1.6,0.5-1.8,1.3H161.3z M157.8,46.2
					c0.2,0.8,0.9,1.2,1.9,1.2c0.7,0,1.2-0.2,1.5-0.7l1.4,0.8c-0.7,0.9-1.7,1.4-3,1.4c-1.1,0-2-0.3-2.7-1s-1-1.5-1-2.5s0.3-1.8,1-2.5
					s1.5-1,2.6-1c1,0,1.8,0.3,2.5,1s1,1.5,1,2.5c0,0.2,0,0.5-0.1,0.7L157.8,46.2L157.8,46.2z"/>
				<polygon id="Fill-5" class="st0" points="168.1,42 170,42 167.5,49 165.5,49 163,42 164.9,42 166.5,46.9 				"/>
				<path id="Fill-7" class="st0" d="M176.3,44.9c-0.2-0.9-0.9-1.3-1.7-1.3c-0.9,0-1.6,0.5-1.8,1.3H176.3z M172.8,46.2
					c0.2,0.8,0.9,1.2,1.9,1.2c0.7,0,1.2-0.2,1.5-0.7l1.4,0.8c-0.7,0.9-1.7,1.4-3,1.4c-1.1,0-2-0.3-2.7-1s-1-1.5-1-2.5s0.3-1.8,1-2.5
					s1.5-1,2.6-1c1,0,1.8,0.3,2.5,1s1,1.5,1,2.5c0,0.2,0,0.5-0.1,0.7L172.8,46.2L172.8,46.2z"/>
				<polygon id="Fill-9" class="st0" points="180,49 182,49 182,39 180,39 				"/>
				<path id="Fill-11" class="st0" d="M186.5,47.3c0.5,0,0.9-0.2,1.3-0.5c0.3-0.3,0.5-0.8,0.5-1.3s-0.2-1-0.5-1.3s-0.8-0.5-1.3-0.5
					s-0.9,0.2-1.3,0.5c-0.3,0.3-0.5,0.8-0.5,1.3s0.2,1,0.5,1.3C185.6,47.2,186,47.3,186.5,47.3 M186.5,49c-1,0-1.8-0.3-2.5-1
					s-1-1.5-1-2.5s0.3-1.8,1-2.5s1.5-1,2.5-1s1.8,0.3,2.5,1s1,1.5,1,2.5s-0.3,1.8-1,2.5S187.5,49,186.5,49"/>
				<path id="Fill-12" class="st0" d="M194.5,47.7c0.5,0,1-0.2,1.3-0.5c0.4-0.4,0.5-0.9,0.5-1.4c0-0.6-0.2-1.1-0.5-1.4
					c-0.3-0.4-0.8-0.6-1.3-0.6s-1,0.2-1.3,0.6c-0.3,0.4-0.5,0.8-0.5,1.4c0,0.6,0.2,1,0.5,1.4C193.5,47.5,194,47.7,194.5,47.7
					 M197.1,43.1c0.6,0.7,0.9,1.6,0.9,2.6s-0.3,1.9-0.9,2.6c-0.6,0.7-1.4,1.1-2.3,1.1c-0.9,0-1.6-0.3-2.1-1V52H191v-9.8h1.7V43
					c0.5-0.7,1.2-1,2.1-1C195.7,42,196.4,42.4,197.1,43.1"/>
				<path id="Fill-13" class="st0" d="M210,44.8V49h-1.7v-4.1c0-0.8-0.4-1.3-1.1-1.3c-0.8,0-1.3,0.5-1.3,1.5V49h-1.7v-4.1
					c0-0.8-0.4-1.3-1.1-1.3c-0.8,0-1.3,0.5-1.3,1.5V49H200v-6.8h1.7v0.7c0.4-0.6,1-0.9,1.9-0.9c0.8,0,1.4,0.3,1.8,1
					c0.4-0.7,1.1-1,2-1C209,42,210,43.1,210,44.8"/>
				<path id="Fill-14" class="st0" d="M217.3,44.9c-0.2-0.9-0.9-1.3-1.7-1.3c-0.9,0-1.6,0.5-1.8,1.3H217.3z M213.8,46.2
					c0.2,0.8,0.9,1.2,1.9,1.2c0.7,0,1.2-0.2,1.5-0.7l1.4,0.8c-0.7,0.9-1.7,1.4-3,1.4c-1.1,0-2-0.3-2.7-1s-1-1.5-1-2.5s0.3-1.8,1-2.5
					s1.5-1,2.6-1c1,0,1.8,0.3,2.5,1s1,1.5,1,2.5c0,0.2,0,0.5-0.1,0.7L213.8,46.2L213.8,46.2z"/>
				<path id="Fill-15" class="st0" d="M226.2,42.7c0.5,0.5,0.8,1.2,0.8,2.1V49h-1.9v-4c0-0.9-0.6-1.4-1.5-1.4c-1,0-1.6,0.6-1.6,1.7
					V49h-2v-6.8h1.9V43c0.5-0.6,1.2-1,2.2-1C225,42,225.7,42.2,226.2,42.7"/>
				<path id="Fill-16" class="st0" d="M233,43.7h-1.7v2.9c0,0.8,0.6,0.8,1.7,0.7v1.6c-2.7,0.3-3.7-0.4-3.7-2.3v-2.9H228V42h1.3v-1.4
					l2-0.5v2h1.7V43.7z"/>
				<path id="Fill-17" class="st0" d="M147.2,62h1.6v-7h-1.6V62z M147,53.1c0-0.6,0.5-1.1,1-1.1c0.6,0,1,0.5,1,1.1s-0.5,1.1-1,1.1
					C147.5,54.2,147,53.7,147,53.1z"/>
				<path id="Fill-18" class="st0" d="M156.2,55.7c0.5,0.5,0.8,1.2,0.8,2.1V62h-1.9v-4c0-0.9-0.6-1.4-1.5-1.4c-1,0-1.6,0.6-1.6,1.7
					V62h-2v-6.8h1.9V56c0.5-0.6,1.2-1,2.2-1C155,55,155.7,55.2,156.2,55.7"/>
				<polygon id="Fill-19" class="st0" points="163.1,55 165,55 162.5,62 160.5,62 158,55 159.9,55 161.5,59.9 				"/>
				<path id="Fill-20" class="st0" d="M171.3,57.9c-0.2-0.9-0.9-1.3-1.7-1.3c-0.9,0-1.6,0.5-1.8,1.3H171.3z M167.8,59.2
					c0.2,0.8,0.9,1.2,1.9,1.2c0.7,0,1.2-0.2,1.5-0.7l1.4,0.8c-0.7,0.9-1.7,1.4-3,1.4c-1.1,0-2-0.3-2.7-1s-1-1.5-1-2.5s0.3-1.8,1-2.5
					s1.5-1,2.6-1c1,0,1.8,0.3,2.5,1s1,1.5,1,2.5c0,0.2,0,0.5-0.1,0.7L167.8,59.2L167.8,59.2z"/>
				<path id="Fill-21" class="st0" d="M177,57.8c0.9,0.2,2,0.7,2,2.1c0,0.7-0.2,1.2-0.7,1.6c-0.5,0.4-1,0.5-1.7,0.5
					c-1.3,0-2.1-0.5-2.6-1.6l1.4-0.8c0.2,0.6,0.6,0.9,1.2,0.9c0.6,0,0.8-0.2,0.8-0.6c0-0.4-0.5-0.6-1.1-0.7c-0.9-0.3-2-0.7-2-2
					c0-0.6,0.2-1.2,0.7-1.5c0.4-0.4,1-0.6,1.7-0.6c1,0,1.8,0.5,2.3,1.4l-1.3,0.8c-0.2-0.5-0.5-0.7-1-0.7c-0.4,0-0.7,0.2-0.7,0.5
					C175.9,57.4,176.3,57.6,177,57.8"/>
				<path id="Fill-22" class="st0" d="M185,56.7h-1.7v2.9c0,0.8,0.6,0.8,1.7,0.7v1.6c-2.7,0.3-3.7-0.4-3.7-2.3v-2.9H180V55h1.3v-1.4
					l2-0.5v2h1.7V56.7z"/>
				<path id="Fill-23" class="st0" d="M196,57.8V62h-1.7v-4.1c0-0.8-0.4-1.3-1.1-1.3c-0.8,0-1.3,0.5-1.3,1.5V62h-1.7v-4.1
					c0-0.8-0.4-1.3-1.1-1.3c-0.8,0-1.3,0.5-1.3,1.5V62H186v-6.8h1.7v0.7c0.4-0.6,1-0.9,1.9-0.9c0.8,0,1.4,0.3,1.8,1
					c0.4-0.7,1.1-1,2-1C195,55,196,56.1,196,57.8"/>
				<path id="Fill-24" class="st0" d="M202.3,57.9c-0.2-0.9-0.9-1.3-1.7-1.3c-0.9,0-1.6,0.5-1.8,1.3H202.3z M198.8,59.2
					c0.2,0.8,0.9,1.2,1.9,1.2c0.7,0,1.2-0.2,1.5-0.7l1.4,0.8c-0.7,0.9-1.7,1.4-3,1.4c-1.1,0-2-0.3-2.7-1s-1-1.5-1-2.5s0.3-1.8,1-2.5
					s1.5-1,2.6-1c1,0,1.8,0.3,2.5,1s1,1.5,1,2.5c0,0.2,0,0.5-0.1,0.7L198.8,59.2L198.8,59.2z"/>
				<path id="Fill-25" class="st0" d="M212.2,55.7c0.5,0.5,0.8,1.2,0.8,2.1V62h-1.9v-4c0-0.9-0.6-1.4-1.5-1.4c-1,0-1.6,0.6-1.6,1.7
					V62h-2v-6.8h1.9V56c0.5-0.6,1.2-1,2.2-1C211,55,211.7,55.2,212.2,55.7"/>
				<path id="Fill-26" class="st0" d="M219,56.7h-1.7v2.9c0,0.8,0.6,0.8,1.7,0.7v1.6c-2.7,0.3-3.7-0.4-3.7-2.3v-2.9H214V55h1.3v-1.4
					l2-0.5v2h1.7V56.7z"/>
				<path id="Fill-27" class="st0" d="M157,70.8V75h-1.7v-4.1c0-0.8-0.4-1.3-1.1-1.3c-0.8,0-1.3,0.5-1.3,1.5V75h-1.7v-4.1
					c0-0.8-0.4-1.3-1.1-1.3c-0.8,0-1.3,0.5-1.3,1.5V75H147v-6.8h1.7v0.7c0.4-0.6,1-0.9,1.9-0.9c0.8,0,1.4,0.3,1.8,1
					c0.4-0.7,1.1-1,2-1C156,68,157,69.1,157,70.8"/>
				<path id="Fill-28" class="st0" d="M162.5,73.4c0.5,0,1-0.2,1.3-0.5c0.4-0.4,0.5-0.8,0.5-1.4c0-0.5-0.2-1-0.5-1.3
					c-0.3-0.4-0.8-0.5-1.3-0.5s-1,0.2-1.3,0.5s-0.5,0.8-0.5,1.3s0.2,1,0.5,1.4C161.5,73.2,162,73.4,162.5,73.4z M164.3,68.2h1.7v6.6
					h-1.7V74c-0.5,0.6-1.2,1-2.1,1c-0.9,0-1.6-0.3-2.3-1c-0.6-0.7-0.9-1.5-0.9-2.5s0.3-1.8,0.9-2.5c0.6-0.7,1.4-1,2.3-1
					c0.9,0,1.6,0.3,2.1,1V68.2z"/>
				<path id="Fill-29" class="st0" d="M174.2,68.7c0.5,0.5,0.8,1.2,0.8,2.1V75h-1.9v-4c0-0.9-0.6-1.4-1.5-1.4c-1,0-1.6,0.6-1.6,1.7
					V75h-2v-6.8h1.9V69c0.5-0.6,1.2-1,2.2-1C173,68,173.7,68.2,174.2,68.7"/>
				<path id="Fill-30" class="st0" d="M179.5,73.4c0.5,0,1-0.2,1.3-0.5c0.4-0.4,0.5-0.8,0.5-1.4c0-0.5-0.2-1-0.5-1.3
					c-0.3-0.4-0.8-0.5-1.3-0.5s-1,0.2-1.3,0.5s-0.5,0.8-0.5,1.3s0.2,1,0.5,1.4C178.5,73.2,179,73.4,179.5,73.4z M181.3,68.2h1.7v6.6
					h-1.7V74c-0.5,0.6-1.2,1-2.1,1c-0.9,0-1.6-0.3-2.3-1c-0.6-0.7-0.9-1.5-0.9-2.5s0.3-1.8,0.9-2.5c0.6-0.7,1.4-1,2.3-1
					c0.9,0,1.6,0.3,2.1,1V68.2z"/>
				<path id="Fill-31" class="st0" d="M188.8,70.2c-0.3-0.4-0.8-0.5-1.3-0.5s-1,0.2-1.3,0.5s-0.5,0.8-0.5,1.3c0,1.1,0.8,1.9,1.8,1.9
					c1.1,0,1.8-0.8,1.8-1.9C189.4,71,189.2,70.5,188.8,70.2z M189.4,68.2h1.6v6.5c0,1.1-0.3,1.9-1,2.4c-0.7,0.6-1.5,0.8-2.4,0.8
					c-1.4,0-2.5-0.6-3.1-1.7l1.4-0.9c0.3,0.6,0.9,1,1.7,1c1.1,0,1.7-0.6,1.7-1.7V74c-0.5,0.7-1.2,1-2.1,1c-0.9,0-1.7-0.3-2.3-1
					s-0.9-1.5-0.9-2.5s0.3-1.8,0.9-2.5c0.6-0.7,1.4-1,2.3-1c0.9,0,1.6,0.3,2.1,1v-0.8H189.4z"/>
				<path id="Fill-32" class="st0" d="M199.3,70.9c-0.2-0.9-0.9-1.3-1.7-1.3c-0.9,0-1.6,0.5-1.8,1.3H199.3z M195.8,72.2
					c0.2,0.8,0.9,1.2,1.9,1.2c0.7,0,1.2-0.2,1.5-0.7l1.4,0.8c-0.7,0.9-1.7,1.4-3,1.4c-1.1,0-2-0.3-2.7-1s-1-1.5-1-2.5s0.3-1.8,1-2.5
					s1.5-1,2.6-1c1,0,1.8,0.3,2.5,1s1,1.5,1,2.5c0,0.2,0,0.5-0.1,0.7L195.8,72.2L195.8,72.2z"/>
				<path id="Fill-33" class="st0" d="M212,70.8V75h-1.7v-4.1c0-0.8-0.4-1.3-1.1-1.3c-0.8,0-1.3,0.5-1.3,1.5V75h-1.7v-4.1
					c0-0.8-0.4-1.3-1.1-1.3c-0.8,0-1.3,0.5-1.3,1.5V75H202v-6.8h1.7v0.7c0.4-0.6,1-0.9,1.9-0.9c0.8,0,1.4,0.3,1.8,1
					c0.4-0.7,1.1-1,2-1C211,68,212,69.1,212,70.8"/>
				<path id="Fill-34" class="st0" d="M219.3,70.9c-0.2-0.9-0.9-1.3-1.7-1.3c-0.9,0-1.6,0.5-1.8,1.3H219.3z M215.8,72.2
					c0.2,0.8,0.9,1.2,1.9,1.2c0.7,0,1.2-0.2,1.5-0.7l1.4,0.8c-0.7,0.9-1.7,1.4-3,1.4c-1.1,0-2-0.3-2.7-1s-1-1.5-1-2.5s0.3-1.8,1-2.5
					s1.5-1,2.6-1c1,0,1.8,0.3,2.5,1s1,1.5,1,2.5c0,0.2,0,0.5-0.1,0.7L215.8,72.2L215.8,72.2z"/>
				<path id="Fill-35" class="st0" d="M229.2,68.7c0.5,0.5,0.8,1.2,0.8,2.1V75h-1.9v-4c0-0.9-0.6-1.4-1.5-1.4c-1,0-1.6,0.6-1.6,1.7
					V75h-2v-6.8h1.9V69c0.5-0.6,1.2-1,2.2-1C228,68,228.7,68.2,229.2,68.7"/>
				<path id="Fill-36" class="st0" d="M235,69.7h-1.7v2.9c0,0.8,0.6,0.8,1.7,0.7v1.6c-2.7,0.3-3.7-0.4-3.7-2.3v-2.9H230V68h1.3v-1.4
					l2-0.5v2h1.7V69.7z"/>
				<path id="Fill-37" class="st0" d="M132,39.3V75h-18.6V47.1l-9.4-9.8L94.6,47v27.9H75.9V47.1c0-5.5-4.3-9.7-9.4-9.7l0,0h-9.7
					V18.9H38.3v18.4H28c-5.2,0-9.5,4.1-9.5,9.3s4.3,9.5,9.5,9.5h10.2V37.3h18.6V75H28C12.5,75,0,62.2,0,46.6
					c0-15.5,12.5-27.9,28-27.9h10V0h19v18.8h9.4c8.2,0,15.5,3.6,20.7,9.2L104,11.2L132,39.3z"/>
			</g>
		</g>
	</g>
</g>
</svg>
