<?xml version="1.0" encoding="UTF-8"?>
<svg width="90px" height="50px" viewBox="0 0 90 50" version="1.1" xmlns="http://www.w3.org/2000/svg" xmlns:xlink="http://www.w3.org/1999/xlink">
    <!-- Generator: Sketch 52.2 (67145) - http://www.bohemiancoding.com/sketch -->
    <title>main_logo_dark</title>
    <desc>Created with Sketch.</desc>
    <defs>
        <path d="M18.7816217,45.7438592 L19.5356504,45.7438592 L19.5356504,49.7608598 L18.7816217,49.7608598 L18.7816217,47.8805944 L16.9067394,47.8805944 L16.9067394,49.7608598 L16.1527106,49.7608598 L16.1527106,45.7438592 L16.9067394,45.7438592 L16.9067394,47.5310726 L18.7816217,47.5310726 L18.7816217,45.7438592 Z M21.9247411,49.7609752 L21.9247411,45.7439745 L22.6791543,45.7439745 L22.6791543,49.7609752 L21.9247411,49.7609752 Z M27.4629111,47.981798 L27.4629111,47.6522709 L28.9575106,47.6522709 L28.9575106,49.4540959 L28.9321328,49.4679383 C28.8102424,49.5336899 28.6952732,49.5879062 28.581073,49.6340477 C28.4630277,49.6813427 28.3346006,49.7217165 28.1988677,49.7547845 C28.0635194,49.7882371 27.9112525,49.8136149 27.7474502,49.8293799 C27.585186,49.8455295 27.398313,49.8536042 27.1925989,49.8536042 C26.9726578,49.8536042 26.7607915,49.8286109 26.5631521,49.7793933 C26.3651283,49.7301757 26.1782553,49.6594255 26.0090698,49.5694496 C25.8402689,49.4802427 25.6853104,49.3710412 25.548424,49.2441521 C25.4111531,49.117263 25.2931078,48.9757625 25.1977487,48.8234956 C25.1027742,48.6716132 25.0281788,48.5051194 24.9755006,48.3293972 C24.9239759,48.151368 24.8978291,47.9671866 24.8978291,47.7814671 C24.8978291,47.5942096 24.9232069,47.4092591 24.972809,47.2312299 C25.0224111,47.0543542 25.0943149,46.8847843 25.1858289,46.7271342 C25.2784963,46.5694841 25.392312,46.4237539 25.5245842,46.2937888 C25.6568565,46.1634391 25.8083544,46.0488544 25.9756173,45.9542644 C26.1409576,45.8592898 26.3239855,45.7850789 26.5200868,45.7320162 C26.7161881,45.680107 26.9269008,45.6531912 27.1476109,45.6531912 C27.3602463,45.6531912 27.5590392,45.6827986 27.7378374,45.7404755 C27.9181737,45.7977678 28.083514,45.8750548 28.2300132,45.9700294 C28.3772815,46.0634659 28.5110918,46.1742054 28.62683,46.2995565 C28.7394921,46.4218314 28.8390808,46.5517966 28.92252,46.6867604 L28.9467443,46.7255961 L28.579535,46.9732221 L28.5549262,46.9255426 C28.3930465,46.6163946 28.2123257,46.3876098 28.0166089,46.2438022 C27.8231991,46.1026861 27.5982594,46.0311668 27.3471728,46.0311668 C27.117619,46.0311668 26.9042146,46.0723096 26.713112,46.1538263 C26.5212403,46.2357274 26.3528239,46.3530037 26.2124769,46.502579 C26.0721299,46.6533078 25.9613903,46.8382583 25.8837188,47.0524317 C25.8048938,47.266605 25.765289,47.5119239 25.765289,47.7814671 C25.765289,48.0502412 25.8087389,48.2951756 25.8944851,48.5097335 C25.9794624,48.7242914 26.0967386,48.9092419 26.2443914,49.0603552 C26.3935822,49.2126221 26.5643057,49.3268223 26.7661747,49.4091079 C26.9661211,49.4910091 27.1833706,49.5325364 27.4121554,49.5325364 C27.5786493,49.5325364 27.7301472,49.5098502 27.8635729,49.4644777 C27.988155,49.4225659 28.1023551,49.3629664 28.2030974,49.286833 L28.2030974,47.981798 L27.4629111,47.981798 Z M33.9049927,47.5308035 L33.9049927,45.7439745 L34.659406,45.7439745 L34.659406,49.7609752 L33.9049927,49.7609752 L33.9049927,47.8803252 L32.0301104,47.8803252 L32.0301104,49.7609752 L31.2756972,49.7609752 L31.2756972,45.7439745 L32.0301104,45.7439745 L32.0301104,47.5308035 L33.9049927,47.5308035 Z M37.8019486,45.7437823 L37.8019486,49.4112612 L39.7756506,49.4112612 L39.7756506,49.7607829 L37.0471508,49.7607829 L37.0471508,45.7437823 L37.8019486,45.7437823 Z M41.7275122,49.7609752 L41.7275122,45.7439745 L42.4819255,45.7439745 L42.4819255,49.7609752 L41.7275122,49.7609752 Z M47.2660283,47.981798 L47.2660283,47.6522709 L48.7606278,47.6522709 L48.7606278,49.4540959 L48.73525,49.4679383 C48.6168202,49.5317674 48.4987749,49.5879062 48.3845747,49.6340477 C48.2653759,49.6817272 48.1369488,49.722101 48.0019849,49.7547845 C47.8666366,49.7882371 47.7147542,49.8136149 47.5505674,49.8293799 C47.3859961,49.845914 47.2045063,49.8536042 46.9957161,49.8536042 C46.775775,49.8536042 46.5639087,49.8286109 46.3662693,49.7793933 C46.167861,49.7301757 45.9813725,49.6594255 45.812187,49.5694496 C45.6433861,49.4802427 45.4888121,49.3706567 45.3515412,49.2441521 C45.2150393,49.1180321 45.096994,48.976916 45.0012505,48.8234956 C44.9058914,48.6708442 44.8309115,48.5043503 44.7786178,48.3293972 C44.7270931,48.151368 44.7009463,47.9671866 44.7009463,47.7814671 C44.7009463,47.5942096 44.7263241,47.4092591 44.7759262,47.2312299 C44.8262973,47.0528162 44.8982012,46.8832462 44.9897151,46.7267497 C45.081229,46.5698686 45.1950447,46.4241385 45.3277015,46.2937888 C45.4611272,46.1626701 45.6126251,46.0484699 45.7787345,45.9542644 C45.9440748,45.8592898 46.1271027,45.7850789 46.323204,45.7320162 C46.5196898,45.680107 46.7304026,45.6531912 46.9507281,45.6531912 C47.1633635,45.6531912 47.3621564,45.6827986 47.5409546,45.7404755 C47.7209064,45.7977678 47.8862467,45.8750548 48.0335149,45.9696448 C48.1807832,46.0634659 48.314209,46.1745899 48.4303317,46.2995565 C48.5433783,46.4222159 48.642967,46.5521811 48.7256372,46.6867604 L48.749477,46.7259807 L48.3822677,46.9732221 L48.3572744,46.9255426 C48.1961637,46.6160101 48.0154429,46.3872253 47.8197261,46.2438022 C47.6263164,46.1026861 47.4017611,46.0311668 47.1506746,46.0311668 C46.9211207,46.0311668 46.7077163,46.0723096 46.5162292,46.1538263 C46.3243575,46.2357274 46.1559411,46.3530037 46.0163631,46.5021945 C45.8760161,46.6525388 45.7652765,46.8374892 45.686836,47.0524317 C45.608011,47.2677586 45.5684062,47.512693 45.5684062,47.7814671 C45.5684062,48.0502412 45.6118561,48.2951756 45.6976024,48.5097335 C45.7825796,48.7235224 45.8998559,48.9088573 46.0478931,49.0603552 C46.1943923,49.210315 46.36973,49.3279758 46.5692919,49.4091079 C46.7692383,49.4910091 46.9864878,49.5325364 47.2156572,49.5325364 C47.3817665,49.5325364 47.5332644,49.5098502 47.6670747,49.4644777 C47.7916567,49.4225659 47.9058568,49.3629664 48.0065991,49.286833 L48.0065991,47.981798 L47.2660283,47.981798 Z M53.7077254,47.5308035 L53.7077254,45.7439745 L54.4621387,45.7439745 L54.4621387,49.7609752 L53.7077254,49.7609752 L53.7077254,47.8803252 L51.8328431,47.8803252 L51.8328431,49.7609752 L51.0784299,49.7609752 L51.0784299,45.7439745 L51.8328431,45.7439745 L51.8328431,47.5308035 L53.7077254,47.5308035 Z M56.1473795,46.0930349 L56.1473795,45.7438976 L59.7429545,45.7438976 L59.7429545,46.0930349 L58.3241039,46.0930349 L58.3241039,49.7608983 L57.5689217,49.7608983 L57.5689217,46.0930349 L56.1473795,46.0930349 Z M66.9456401,47.5308035 L66.9456401,45.7439745 L67.7000534,45.7439745 L67.7000534,49.7609752 L66.9456401,49.7609752 L66.9456401,47.8803252 L65.0711423,47.8803252 L65.0711423,49.7609752 L64.3163446,49.7609752 L64.3163446,45.7439745 L65.0711423,45.7439745 L65.0711423,47.5308035 L66.9456401,47.5308035 Z M74.0421234,46.6786087 C74.1359444,46.8324137 74.2097707,46.999292 74.2609109,47.1746297 C74.3124355,47.3499673 74.3389669,47.5360713 74.3389669,47.727943 C74.3389669,47.9221217 74.3124355,48.1116863 74.2609109,48.2916381 C74.2097707,48.4719744 74.1359444,48.6430824 74.0425079,48.7999634 C73.9486869,48.9568445 73.8329486,49.1018056 73.6991383,49.2306173 C73.5660971,49.3594289 73.4161372,49.471322 73.2534885,49.562836 C73.0904553,49.6555034 72.912426,49.7274073 72.724015,49.7773939 C72.537142,49.8281495 72.336811,49.8535273 72.1291744,49.8535273 C71.9211532,49.8535273 71.7204377,49.8281495 71.5335647,49.7773939 C71.3466917,49.7277918 71.169047,49.655888 71.0040912,49.5632205 C70.8414425,49.471322 70.6914826,49.3594289 70.5588259,49.2306173 C70.4257846,49.1029592 70.3104309,48.957998 70.2158408,48.7999634 C70.1227889,48.6442359 70.048578,48.4735124 69.9966688,48.2935607 C69.9451441,48.1128398 69.9189973,47.9225062 69.9189973,47.727943 C69.9189973,47.5379939 69.9451441,47.3515054 69.9966688,47.1746297 C70.048578,46.9981385 70.1227889,46.8312601 70.2162254,46.6786087 C70.3104309,46.5244193 70.4261691,46.3833032 70.5595949,46.2591058 C70.6914826,46.1349083 70.8410579,46.0257067 71.0044757,45.9353463 C71.169047,45.8453705 71.3466917,45.7750047 71.5339492,45.7265561 C71.9103868,45.629659 72.3464238,45.629659 72.724015,45.7265561 C72.912426,45.7753892 73.0904553,45.8453705 73.253104,45.9353463 C73.4165217,46.0257067 73.5660971,46.1349083 73.6987538,46.2594903 C73.8329486,46.3844568 73.9486869,46.5255728 74.0421234,46.6786087 Z M73.4688154,47.727943 C73.4688154,47.4664746 73.438439,47.2223092 73.3788395,47.0015991 C73.3192401,46.7835806 73.2319558,46.594016 73.1185247,46.437904 C73.0062471,46.281792 72.8655155,46.1595171 72.7009442,46.0737708 C72.5352194,45.98764 72.3429632,45.9438056 72.1291744,45.9438056 C71.9092333,45.9438056 71.7135165,45.98764 71.5470226,46.0737708 C71.3816823,46.1595171 71.2413353,46.281792 71.1290577,46.437904 C71.0175491,46.5928625 70.9314184,46.7828116 70.873357,47.0015991 C70.8156801,47.2230782 70.7860727,47.4672436 70.7860727,47.727943 C70.7860727,47.992872 70.8156801,48.2424205 70.873357,48.4692828 C70.9314184,48.6942225 71.0179336,48.8891703 71.1294422,49.049512 C71.2417198,49.2094691 71.3824514,49.3363582 71.5477917,49.4255651 C71.7142855,49.5147719 71.9096178,49.5605289 72.1291744,49.5605289 C72.3425787,49.5605289 72.5348349,49.5147719 72.7001752,49.4255651 C72.865131,49.3359737 73.0058625,49.2094691 73.1181402,49.0491274 C73.2315713,48.8884013 73.3188556,48.693069 73.3788395,48.4688983 C73.438439,48.2431895 73.4688154,47.993641 73.4688154,47.727943 Z M79.5842154,48.3362415 L79.5842154,45.7438592 L79.9702658,45.7438592 L79.9702658,48.3362415 C79.9702658,48.5419556 79.9364287,48.7384415 79.8699081,48.9203158 C79.8026184,49.1037282 79.6961085,49.2667614 79.5530699,49.4051859 C79.4100313,49.5436103 79.2243118,49.6539654 79.0016792,49.7343285 C78.7809691,49.813538 78.5129639,49.8535273 78.204585,49.8535273 C77.9308122,49.8535273 77.6839553,49.813538 77.4701664,49.7343285 C77.255993,49.6535809 77.0748877,49.5424568 76.9299266,49.4036478 C76.7841964,49.2640699 76.6730723,49.0991141 76.5992459,48.9141636 C76.525035,48.7292132 76.4873528,48.5300358 76.4873528,48.3223991 L76.4873528,45.7438592 L77.2425351,45.7438592 L77.2425351,48.3362415 C77.2425351,48.4981212 77.27022,48.6503881 77.3252053,48.7903506 C77.3794215,48.9303131 77.458631,49.0548951 77.5609113,49.1614051 C77.6643452,49.2675305 77.7885427,49.3521232 77.9308122,49.4124916 C78.0738508,49.4732446 78.2372686,49.5040056 78.4164513,49.5040056 C78.5979412,49.5040056 78.7613589,49.4732446 78.903244,49.4124916 C79.0466671,49.3521232 79.1700956,49.2675305 79.2708378,49.1617896 C79.3711955,49.0556642 79.4492515,48.9310822 79.5026988,48.7907351 C79.556915,48.6496191 79.5842154,48.4969677 79.5842154,48.3362415 Z M84.4541029,47.9626493 C84.5613818,48.0607 84.6486662,48.1683634 84.7136487,48.2829481 C84.7817074,48.4013779 84.815929,48.5348037 84.815929,48.6797649 C84.815929,48.8416446 84.7847835,48.9954495 84.7232616,49.1365656 C84.6617396,49.2792196 84.5683031,49.4053397 84.4452591,49.5114651 C84.3210616,49.6175905 84.1680257,49.7017987 83.9884584,49.7629362 C83.8069686,49.8233046 83.5958713,49.8540656 83.3601652,49.8540656 C83.1702161,49.8540656 82.996801,49.8325329 82.8441496,49.7902366 C82.6926518,49.7483247 82.5557654,49.6852647 82.436182,49.6033636 C82.3189058,49.5214624 82.2173945,49.4195667 82.1335708,49.3011369 C82.0493626,49.1815535 81.9801504,49.0469742 81.9278567,48.901244 L81.9120917,48.8581786 L82.357357,48.6751507 L82.3735065,48.7243683 C82.4123423,48.8462587 82.466174,48.9577673 82.5334637,49.0554335 C82.5999843,49.1523306 82.6784248,49.2350007 82.7657091,49.3011369 C82.8545315,49.3684265 82.9537357,49.4199512 83.0610146,49.4541728 C83.2532708,49.5164638 83.477057,49.5268456 83.6839246,49.4695533 C83.7731315,49.44456 83.8534946,49.4072623 83.9223223,49.3584292 C83.99115,49.3095961 84.0465198,49.2496122 84.0876626,49.1804 C84.1276519,49.1115723 84.1484156,49.0312092 84.1484156,48.9412333 C84.1484156,48.8316473 84.1199617,48.7332121 84.0634383,48.6486194 C84.0042234,48.560566 83.9261674,48.4775114 83.8308084,48.4021469 C83.7331422,48.325629 83.6193266,48.2529562 83.4924375,48.186051 C83.3866966,48.1299122 83.2782641,48.0733889 83.1694471,48.0164811 L83.0979278,47.9787988 C82.9618104,47.9084331 82.8280001,47.8349912 82.6999575,47.7600113 C82.5661472,47.6811863 82.4473329,47.593902 82.3473597,47.5004655 C82.2427723,47.4039529 82.1574106,47.2947513 82.0935815,47.175168 C82.0282144,47.0528931 81.9947618,46.9113925 81.9947618,46.754127 C81.9947618,46.598784 82.0247538,46.4519003 82.0835842,46.3173209 C82.1424146,46.1823571 82.2300834,46.0643118 82.3435145,45.9662611 C82.4573302,45.868595 82.5980617,45.791308 82.7614795,45.7363227 C82.9241282,45.680953 83.1136928,45.6532681 83.3240211,45.6532681 C83.7035348,45.6532681 84.0092221,45.7351692 84.2318548,45.8962799 C84.4537184,46.0573906 84.6163671,46.2923276 84.7151868,46.5957079 L84.7282602,46.6368507 L84.3022205,46.8317985 L84.2856865,46.7806583 C84.2480043,46.6649201 84.1991712,46.5576412 84.1403408,46.4615131 C84.0818949,46.366923 84.0115292,46.2846374 83.9307816,46.2169632 C83.8504185,46.149289 83.7565975,46.0966108 83.6512411,46.0608512 C83.5466537,46.0243225 83.4259168,46.0058659 83.2924911,46.0058659 C83.1752148,46.0058659 83.0713964,46.0223999 82.9848812,46.054699 C82.8991349,46.0866135 82.8264621,46.1285254 82.7691697,46.1804345 C82.7137999,46.2308056 82.6707346,46.288867 82.6422806,46.3530806 C82.6149803,46.4176787 82.6007533,46.4834303 82.6007533,46.5487974 C82.6007533,46.6426184 82.6288227,46.7256731 82.6864996,46.8025755 C82.746868,46.8833231 82.8276156,46.9617636 82.9272043,47.036359 C83.0283311,47.112108 83.1425312,47.1832428 83.2763415,47.2536085 L83.6831556,47.46932 C83.8154279,47.5393012 83.9526988,47.6162037 84.0915077,47.6981048 C84.2291632,47.7796214 84.3510536,47.8688283 84.4541029,47.9626493 Z M89.7831751,46.0930349 L87.7168056,46.0930349 L87.7168056,47.3988388 L89.0991276,47.3988388 L89.0991276,47.7479761 L87.7168056,47.7479761 L87.7168056,49.4113765 L89.7831751,49.4113765 L89.7831751,49.7608983 L86.9623924,49.7608983 L86.9623924,45.7438976 L89.7831751,45.7438976 L89.7831751,46.0930349 Z M89.7381871,33.7413443 L89.7381871,33.7582628 L89.7697171,33.7582628 L89.7697171,34.7983687 L34.709085,34.7983687 C35.1035947,35.7792598 35.4969508,36.7605353 35.892614,37.7418109 C36.4290088,39.0729927 36.9688641,40.4030209 37.5075659,41.7334337 L27.6817371,41.7334337 C27.5529254,41.4058292 27.4237293,41.0778401 27.2945331,40.7502356 C26.637017,39.0795294 25.9829614,37.4072851 25.3258298,35.7361944 C24.6221722,33.9474429 23.915823,32.1602294 23.2125499,30.3710934 C22.5408068,28.6607824 21.8736778,26.9485489 21.2007812,25.2386224 C20.1706726,22.6216313 19.1359498,20.0073317 18.1081483,17.3899561 C17.5040793,15.8515221 16.9111613,14.3080895 16.3090149,12.7688865 C16.3047853,12.7588892 16.2986331,12.7492764 16.2932499,12.7396636 L10.509415,26.640939 L9.5492876,26.2414306 L15.5872852,11.7291651 C16.0544677,10.5717829 16.5251109,9.41593872 16.9907553,8.25778748 C17.650194,6.6189958 18.303096,4.97712801 18.95446,3.33487571 C19.3347427,2.37551737 19.6961843,1.40846878 20.0926166,0.456031661 C20.1675965,0.276848901 20.36985,0.150728846 20.5132731,-5.68434189e-14 C20.651313,0.139193475 20.851644,0.253778159 20.9185491,0.421425549 C21.6806526,2.30899673 22.4150712,4.20810329 23.1710225,6.09759703 C23.7858578,7.63372392 24.4260709,9.15946897 25.0451358,10.6932888 C26.3940052,14.0370083 27.7390294,17.3818813 29.0794395,20.7290614 C30.2729659,23.7090322 31.4553414,26.6932327 32.6480987,29.673588 C33.1910302,31.0305321 33.7381913,32.3855537 34.2838143,33.7413443 L38.3277308,33.7413443 L38.3277308,13.1991558 L35.4827238,13.1991558 L35.4827238,8.27739761 L43.7439719,8.27739761 L43.7439719,33.7413443 L51.9998369,33.7413443 C48.8749049,31.7676423 46.9085087,28.1243877 47.3672319,24.5495763 L52.3589714,24.5495763 C52.3955001,25.0802033 52.3797351,25.6208277 52.4777857,26.1403039 C52.9242046,28.507362 55.2751132,30.2903458 57.7190737,30.1496143 C60.0695978,30.0134969 62.1817242,27.9021395 62.3447574,25.5262377 C62.5116358,23.0907364 60.7359577,20.7229092 58.3439063,20.2768749 C57.7075384,20.1584451 57.0350262,20.2222741 56.3782791,20.2195825 C54.7802458,20.2134303 53.1818279,20.21766 51.3534716,20.21766 C53.0118734,17.8233015 54.5599202,15.5889002 56.1967893,13.2253027 L49.1794387,13.2253027 L49.1794387,8.15396915 L66.0441509,8.15396915 C64.3019254,10.6506079 62.6019962,13.0880318 60.8782273,15.5585237 C63.8328203,16.7574332 65.8276704,18.8522566 66.8850794,21.7768576 C67.7379278,24.1377635 67.6921709,26.5598069 66.7885668,28.8987956 C65.985705,30.9763159 64.5410921,32.6354867 62.7542631,33.7413443 L76.9316184,33.7413443 C72.8738595,32.3897833 70.2680192,28.490828 70.3122381,24.5226604 C70.3122381,24.5080489 70.3126226,24.4934374 70.3126226,24.478826 C70.3372314,22.2778772 70.9882108,20.1303757 72.1844288,18.2827938 L78.73998,8.15396915 L84.2877244,8.15396915 L80.3591616,14.5472562 C81.6891899,14.7002921 81.4915505,14.5637902 82.7485214,14.8721691 C86.2168229,15.7219415 88.988388,18.4262169 89.7358801,21.9179736 C90.8951848,27.3307542 88.1451524,32.2117541 83.3099095,33.7413443 L89.7381871,33.7413443 Z M75.2363034,24.4149969 C75.2443782,27.1308077 77.5110785,29.3571343 80.2380402,29.3267578 C83.3379789,29.2921517 85.8369247,26.2095161 84.9048667,22.9815348 C84.2758045,20.8044258 82.1475286,19.3348196 79.8850579,19.4667073 C77.2403818,19.6216658 75.2282286,21.7360993 75.2363034,24.4149969 Z M22.0744702,34.8317444 L14.136597,34.8236697 L8.96644377,48.6818797 L12.7458158,48.6864938 L12.7458158,49.0510116 L12.7458158,49.7258308 L12.7458158,49.7262153 L0.952821633,49.7262153 L0.952821633,49.7258308 L0.273772802,49.7258308 L0,49.7258308 L0.273772802,49.0513961 L0.273772802,49.0510116 L0.274157314,49.0510116 L6.49095318,33.7412674 L21.6807295,33.7412674 L21.930278,34.444925 L22.0744702,34.8317444 Z" id="path-1"></path>
    </defs>
    <g id="Документация" stroke="none" stroke-width="1" fill="none" fill-rule="evenodd">
        <g id="новости_и_акции_A136" transform="translate(-120.000000, -30.000000)">
            <g id="top" transform="translate(40.000000, 30.000000)">
                <g id="Logo" transform="translate(80.000000, 0.000000)">
                    <g id="silver-christmas-table-setting-PZF2PD5">
                        <mask id="mask-2" fill="white">
                            <use xlink:href="#path-1"></use>
                        </mask>
                        <use id="main_logo_dark" fill="#341325" xlink:href="#path-1"></use>
                    </g>
                </g>
            </g>
        </g>
    </g>
</svg>