<?xml version="1.0" encoding="utf-8"?>
<!-- Generator: Adobe Illustrator 23.0.0, SVG Export Plug-In . SVG Version: 6.00 Build 0)  -->
<svg version="1.1" id="Слой_1" xmlns="http://www.w3.org/2000/svg" xmlns:xlink="http://www.w3.org/1999/xlink" x="0px" y="0px"
	 width="130px" height="130px" viewBox="0 0 130 130" style="enable-background:new 0 0 130 130;" xml:space="preserve">
<style type="text/css">
	.st0{fill:none;stroke:#000000;stroke-miterlimit:10;}
	.st1{fill-rule:evenodd;clip-rule:evenodd;fill:#341325;}
</style>
<g>
	<circle class="st0" cx="65" cy="64.5" r="64.5"/>
	<path class="st0" d="M65,0.5c35.3,0,64,28.7,64,64s-28.7,64-64,64S1,99.8,1,64.5S29.7,0.5,65,0.5 M65-0.5c-35.9,0-65,29.1-65,65
		s29.1,65,65,65s65-29.1,65-65S100.9-0.5,65-0.5L65-0.5z"/>
</g>
<g id="Документация">
	<g id="новости_и_акции_A136" transform="translate(-120.000000, -30.000000)">
		<g id="top" transform="translate(40.000000, 30.000000)">
			<g id="Logo" transform="translate(80.000000, 0.000000)">
				<g id="silver-christmas-table-setting-PZF2PD5">
					<g id="main_logo_dark">
						<path class="st1" d="M43.4,82.1H44v3.3h-0.6v-1.5h-1.5v1.5h-0.6v-3.3h0.6v1.5h1.5V82.1z M46,85.4v-3.3h0.6v3.3H46z M50.6,84
							v-0.3h1.2v1.5l0,0c-0.1,0.1-0.2,0.1-0.3,0.1s-0.2,0.1-0.3,0.1s-0.2,0-0.4,0.1c-0.1,0-0.3,0-0.5,0s-0.4,0-0.5-0.1
							c-0.2,0-0.3-0.1-0.5-0.2c-0.1-0.1-0.3-0.2-0.4-0.3c-0.1-0.1-0.2-0.2-0.3-0.3c-0.1-0.1-0.1-0.3-0.2-0.4c0-0.1-0.1-0.3-0.1-0.5
							s0-0.3,0.1-0.5c0-0.1,0.1-0.3,0.2-0.4c0.1-0.1,0.2-0.2,0.3-0.4c0.1-0.1,0.2-0.2,0.4-0.3c0.1-0.1,0.3-0.1,0.4-0.2
							c0.2,0,0.3-0.1,0.5-0.1s0.3,0,0.5,0.1c0.1,0,0.3,0.1,0.4,0.2c0.1,0.1,0.2,0.2,0.3,0.3c0.1,0.1,0.2,0.2,0.2,0.3l0,0l-0.3,0.2
							l0,0c-0.1-0.3-0.3-0.4-0.4-0.6c-0.2-0.1-0.3-0.2-0.6-0.2c-0.2,0-0.4,0-0.5,0.1c-0.2,0.1-0.3,0.2-0.4,0.3
							c-0.1,0.1-0.2,0.3-0.3,0.5S49,83.4,49,83.6s0,0.4,0.1,0.6s0.2,0.3,0.3,0.5c0.1,0.1,0.3,0.2,0.4,0.3c0.2,0.1,0.3,0.1,0.5,0.1
							c0.1,0,0.3,0,0.4-0.1c0.1,0,0.2-0.1,0.3-0.1V84H50.6z M55.9,83.6v-1.5h0.6v3.3h-0.6v-1.5h-1.5v1.5h-0.6v-3.3h0.6v1.5H55.9z
							 M59.1,82.1v3h1.6v0.3h-2.2v-3.3H59.1z M62.3,85.4v-3.3h0.6v3.3H62.3z M66.9,84v-0.3h1.2v1.5l0,0c-0.1,0.1-0.2,0.1-0.3,0.1
							c-0.1,0-0.2,0.1-0.3,0.1c-0.1,0-0.2,0-0.4,0.1c-0.1,0-0.3,0-0.5,0s-0.4,0-0.5-0.1c-0.2,0-0.3-0.1-0.5-0.2
							c-0.1-0.1-0.3-0.2-0.4-0.3c-0.1-0.1-0.2-0.2-0.3-0.3c-0.1-0.1-0.1-0.3-0.2-0.4c0-0.1-0.1-0.3-0.1-0.5s0-0.3,0.1-0.5
							c0-0.1,0.1-0.3,0.2-0.4s0.2-0.2,0.3-0.4c0.1-0.1,0.2-0.2,0.4-0.3c0.1-0.1,0.3-0.1,0.4-0.2c0.2,0,0.3-0.1,0.5-0.1
							s0.3,0,0.5,0.1c0.1,0,0.3,0.1,0.4,0.2s0.2,0.2,0.3,0.3c0.1,0.1,0.2,0.2,0.2,0.3l0,0l-0.3,0.2l0,0c-0.1-0.3-0.3-0.4-0.4-0.6
							c-0.2-0.1-0.3-0.2-0.6-0.2c-0.2,0-0.4,0-0.5,0.1c-0.2,0.1-0.3,0.2-0.4,0.3c-0.1,0.1-0.2,0.3-0.3,0.5c-0.1,0.2-0.1,0.4-0.1,0.6
							s0,0.4,0.1,0.6s0.2,0.3,0.3,0.5c0.1,0.1,0.3,0.2,0.4,0.3c0.2,0.1,0.3,0.1,0.5,0.1c0.1,0,0.3,0,0.4-0.1c0.1,0,0.2-0.1,0.3-0.1
							V84H66.9z M72.2,83.6v-1.5h0.6v3.3h-0.6v-1.5h-1.5v1.5H70v-3.3h0.6v1.5H72.2z M74.2,82.4v-0.3h3v0.3H76v3h-0.6v-3H74.2z
							 M83,83.6v-1.5h0.6v3.3H83v-1.5h-1.5v1.5h-0.6v-3.3h0.6v1.5H83z M88.9,82.9c0.1,0.1,0.1,0.3,0.2,0.4c0,0.1,0.1,0.3,0.1,0.5
							s0,0.3-0.1,0.5c0,0.1-0.1,0.3-0.2,0.4s-0.2,0.2-0.3,0.4c-0.1,0.1-0.2,0.2-0.4,0.3c-0.1,0.1-0.3,0.1-0.4,0.2
							c-0.2,0-0.3,0.1-0.5,0.1s-0.3,0-0.5-0.1c-0.2,0-0.3-0.1-0.4-0.2s-0.3-0.2-0.4-0.3c-0.1-0.1-0.2-0.2-0.3-0.4
							c-0.1-0.1-0.1-0.3-0.2-0.4c0-0.1-0.1-0.3-0.1-0.5s0-0.3,0.1-0.5c0-0.1,0.1-0.3,0.2-0.4s0.2-0.2,0.3-0.3
							c0.1-0.1,0.2-0.2,0.4-0.3c0.1-0.1,0.3-0.1,0.4-0.2c0.3-0.1,0.7-0.1,1,0c0.2,0,0.3,0.1,0.4,0.2s0.3,0.2,0.4,0.3
							C88.7,82.6,88.8,82.8,88.9,82.9z M88.4,83.8c0-0.2,0-0.4-0.1-0.6c0-0.2-0.1-0.3-0.2-0.5c-0.1-0.1-0.2-0.2-0.3-0.3
							c-0.1-0.1-0.3-0.1-0.5-0.1s-0.3,0-0.5,0.1c-0.1,0.1-0.3,0.2-0.3,0.3c-0.1,0.1-0.2,0.3-0.2,0.5s-0.1,0.4-0.1,0.6s0,0.4,0.1,0.6
							c0,0.2,0.1,0.3,0.2,0.5c0.1,0.1,0.2,0.2,0.3,0.3c0.1,0.1,0.3,0.1,0.5,0.1s0.3,0,0.5-0.1c0.1-0.1,0.3-0.2,0.3-0.3
							c0.1-0.1,0.2-0.3,0.2-0.5C88.4,84.2,88.4,84,88.4,83.8z M93.4,84.3v-2.1h0.3v2.1c0,0.2,0,0.3-0.1,0.5s-0.1,0.3-0.3,0.4
							c-0.1,0.1-0.3,0.2-0.5,0.3c-0.2,0.1-0.4,0.1-0.7,0.1c-0.2,0-0.4,0-0.6-0.1s-0.3-0.2-0.4-0.3c0-0.2-0.1-0.3-0.1-0.5
							c-0.1-0.2-0.1-0.3-0.1-0.5v-2.1h0.6v2.1c0,0.1,0,0.3,0.1,0.4c0,0.1,0.1,0.2,0.2,0.3c0.1,0.1,0.2,0.2,0.3,0.2
							c0.1,0,0.3,0.1,0.4,0.1s0.3,0,0.4-0.1c0.1,0,0.2-0.1,0.3-0.2c0.1-0.1,0.1-0.2,0.2-0.3C93.4,84.5,93.4,84.4,93.4,84.3z
							 M97.4,83.9c0.1,0.1,0.2,0.2,0.2,0.3c0.1,0.1,0.1,0.2,0.1,0.3c0,0.1,0,0.3-0.1,0.4s-0.1,0.2-0.2,0.3c-0.1,0.1-0.2,0.2-0.4,0.2
							c-0.1,0-0.3,0.1-0.5,0.1s-0.3,0-0.4-0.1c-0.1,0-0.2-0.1-0.3-0.2c-0.1-0.1-0.2-0.2-0.2-0.2c-0.1-0.1-0.1-0.2-0.2-0.3l0,0
							l0.4-0.2l0,0c0,0.1,0.1,0.2,0.1,0.3c0.1,0.1,0.1,0.1,0.2,0.2s0.2,0.1,0.2,0.1c0.2,0.1,0.3,0.1,0.5,0c0.1,0,0.1-0.1,0.2-0.1
							s0.1-0.1,0.1-0.1c0-0.1,0-0.1,0-0.2s0-0.2-0.1-0.2c0-0.1-0.1-0.1-0.2-0.2s-0.2-0.1-0.3-0.2c-0.1,0-0.2-0.1-0.3-0.1h-0.1
							c-0.1-0.1-0.2-0.1-0.3-0.2c-0.1-0.1-0.2-0.1-0.3-0.2c-0.1-0.1-0.2-0.2-0.2-0.3c-0.1-0.1-0.1-0.2-0.1-0.3c0-0.1,0-0.2,0.1-0.4
							c0-0.1,0.1-0.2,0.2-0.3c0.1-0.1,0.2-0.1,0.3-0.2c0.1,0,0.3-0.1,0.5-0.1c0.3,0,0.6,0.1,0.7,0.2c0.2,0.1,0.3,0.3,0.4,0.6l0,0
							L97.3,83l0,0c0-0.1-0.1-0.2-0.1-0.3c0-0.1-0.1-0.1-0.2-0.2s-0.1-0.1-0.2-0.1s-0.2,0-0.3,0c-0.1,0-0.2,0-0.3,0
							c-0.1,0-0.1,0.1-0.2,0.1l-0.1,0.1c0,0.1,0,0.1,0,0.2s0,0.1,0.1,0.2c0,0.1,0.1,0.1,0.2,0.2s0.2,0.1,0.3,0.2l0.3,0.2
							c0.1,0.1,0.2,0.1,0.3,0.2C97.3,83.8,97.4,83.9,97.4,83.9z M101.8,82.4h-1.7v1.1h1.1v0.3h-1.1v1.4h1.7v0.3h-2.3v-3.3h2.3V82.4z
							 M101.8,72.2L101.8,72.2L101.8,72.2v0.9H56.5c0.3,0.8,0.6,1.6,1,2.4c0.4,1.1,0.9,2.2,1.3,3.3h-8.1c-0.1-0.3-0.2-0.5-0.3-0.8
							c-0.5-1.4-1.1-2.7-1.6-4.1c-0.6-1.5-1.2-2.9-1.7-4.4c-0.6-1.4-1.1-2.8-1.7-4.2c-0.8-2.2-1.7-4.3-2.5-6.5
							c-0.5-1.3-1-2.5-1.5-3.8l0,0l-4.8,11.4l-0.8-0.3l5-11.9c0.4-1,0.8-1.9,1.2-2.9c0.5-1.3,1.1-2.7,1.6-4c0.3-0.8,0.6-1.6,0.9-2.4
							c0.1-0.1,0.2-0.3,0.3-0.4c0.1,0.1,0.3,0.2,0.3,0.3c0.6,1.6,1.2,3.1,1.9,4.7c0.5,1.3,1,2.5,1.5,3.8c1.1,2.7,2.2,5.5,3.3,8.3
							c1,2.5,2,4.9,2.9,7.4c0.4,1.1,0.9,2.2,1.3,3.3h3.3V55.4H57v-4h7v20.9h6.8c-2.6-1.6-4.2-4.6-3.8-7.6h4.1c0,0.4,0,0.9,0.1,1.3
							c0.4,1.9,2.3,3.4,4.3,3.3c1.9-0.1,3.7-1.8,3.8-3.8c0.1-2-1.3-4-3.3-4.3c-0.5-0.1-1.1,0-1.6,0c-1.3,0-2.6,0-4.1,0
							c1.4-2,2.6-3.8,4-5.8h-5.8v-4.2h13.9c-1.4,2.1-2.8,4.1-4.2,6.1c2.4,1,4.1,2.7,4.9,5.1c0.7,1.9,0.7,3.9-0.1,5.9
							c-0.7,1.7-1.8,3.1-3.3,4h11.7c-3.3-1.1-5.5-4.3-5.4-7.6l0,0c0-1.8,0.6-3.6,1.5-5.1l5.4-8.3h4.6l-3.2,5.3c1.1,0.1,0.9,0,2,0.3
							c2.9,0.7,5.1,2.9,5.7,5.8c1,4.5-1.3,8.5-5.3,9.7h5.1V72.2z M89.9,64.6c0,2.2,1.9,4.1,4.1,4c2.5,0,4.6-2.6,3.8-5.2
							c-0.5-1.8-2.3-3-4.1-2.9C91.5,60.6,89.9,62.4,89.9,64.6z M46.1,73.1h-6.5l-4.3,11.4h3.1v0.3v0.6l0,0h-9.7l0,0h-0.6H28l0.2-0.6
							l0,0l0,0l5.1-12.6h12.5l0.2,0.6L46.1,73.1z"/>
					</g>
				</g>
			</g>
		</g>
	</g>
</g>
</svg>
