<?xml version="1.0" encoding="UTF-8"?>
<svg width="24px" height="30px" viewBox="0 0 24 30" version="1.1" xmlns="http://www.w3.org/2000/svg" xmlns:xlink="http://www.w3.org/1999/xlink">
    <!-- Generator: Sketch 52.2 (67145) - http://www.bohemiancoding.com/sketch -->
    <title>pdf_documentation</title>
    <desc>Created with Sketch.</desc>
    <g id="Документация" stroke="none" stroke-width="1" fill="none" fill-rule="evenodd">
        <g id="новости_и_акции_A136" transform="translate(-1010.000000, -465.000000)" fill="#3B152A" fill-rule="nonzero">
            <g id="Group-10" transform="translate(960.000000, 410.000000)">
                <path d="M68.8108396,55 L73.1034024,59.1620614 L73.1034024,85 L50,85 L50,55 L68.8108396,55 Z M71.1059325,83.0018643 L71.1052667,60.1667887 L67.7814768,60.1667887 L67.7814768,56.9974699 L51.9974699,56.9974699 L51.9974699,83.0018643 L71.1059325,83.0018643 Z M58.1816366,68.8437979 C58.3474266,69.0348891 58.4652773,69.2452893 58.5371862,69.4730009 C58.6090951,69.7033757 58.6450496,69.9177708 58.6450496,70.1208469 C58.6450496,70.4677409 58.5904521,70.7673613 58.4812571,71.0203742 C58.3720621,71.2740529 58.2169252,71.4837872 58.0178441,71.6515747 C57.8187629,71.8186963 57.581064,71.9445369 57.3074106,72.0264332 C57.0324256,72.1103269 56.7328051,72.151608 56.4078833,72.151608 L55.369199,72.151608 L55.369199,73.8774219 L53.6107597,73.8774219 L53.6107597,68.172648 L56.5510354,68.172648 C56.9398762,68.172648 57.268127,68.236567 57.5344564,68.3637393 C57.8007857,68.492909 58.0165124,68.6527066 58.1816366,68.8437979 Z M56.8999268,70.5243358 C56.9558559,70.4424396 56.9838205,70.3292496 56.9838205,70.1854318 C56.9838205,70.0582595 56.9605167,69.9563886 56.9159065,69.8824822 C56.8706305,69.8072442 56.8093748,69.751315 56.7321393,69.7146947 C56.6549038,69.6767428 56.5656835,69.6547706 56.4644783,69.6467807 C56.3632732,69.6374592 56.2594048,69.6334643 56.152873,69.6334643 L55.3698648,69.6334643 L55.3698648,70.7919968 L56.0490046,70.7919968 C56.1608629,70.7919968 56.2727212,70.787336 56.3845795,70.780012 C56.4964378,70.7726879 56.5963113,70.7480525 56.6842,70.7087689 C56.7720887,70.6688195 56.8439976,70.6075638 56.8999268,70.5243358 Z M64.1181171,69.0555297 C64.3211932,69.3198615 64.4670085,69.6234769 64.5582262,69.9670417 C64.6487782,70.3099407 64.6940542,70.6621613 64.6940542,71.0177109 C64.6940542,71.454491 64.6354617,71.84999 64.5182768,72.2048738 C64.3997603,72.5577602 64.2213197,72.8580465 63.9816233,73.1063986 C63.7432585,73.353419 63.4389773,73.5445103 63.0721087,73.6770091 C62.7039084,73.8108396 62.2724549,73.8774219 61.7770824,73.8774219 L59.2363007,73.8774219 L59.2363007,68.172648 L62.1206472,68.172648 C62.5947134,68.172648 62.9968706,68.2532126 63.3244557,68.4156735 C63.6513749,68.5781344 63.9157068,68.7918636 64.1181171,69.0555297 Z M62.8923364,71.4398429 C62.9216326,71.2747187 62.9362807,71.1255743 62.9382782,70.9930754 C62.9382782,70.9018576 62.9249617,70.7813436 62.9009921,70.6288701 C62.8776883,70.4763966 62.81843,70.3272521 62.7252147,70.1774419 C62.6319995,70.0282975 62.4928424,69.9004594 62.309741,69.7939277 C62.1259738,69.687396 61.8736267,69.6341301 61.5546974,69.6341301 L60.9954058,69.6341301 L60.9954058,72.4139423 L61.6825355,72.4139423 C61.9535255,72.4139423 62.1719156,72.3660031 62.3370397,72.2667954 C62.5021639,72.1675877 62.6280045,72.0470737 62.716559,71.9025901 C62.8037819,71.759438 62.8630401,71.604967 62.8923364,71.4398429 Z M65.4524269,73.8774219 L65.4524269,68.172648 L69.8628404,68.172648 L69.8628404,69.6341301 L67.2108662,69.6341301 L67.2108662,70.3458952 L69.4879819,70.3458952 L69.4879819,71.7048405 L67.2108662,71.7048405 L67.2108662,73.8774219 L65.4524269,73.8774219 Z" id="pdf_documentation"></path>
            </g>
        </g>
    </g>
</svg>