<?xml version="1.0" encoding="UTF-8"?>
<svg width="30px" height="30px" viewBox="0 0 30 30" version="1.1" xmlns="http://www.w3.org/2000/svg" xmlns:xlink="http://www.w3.org/1999/xlink">
    <!-- Generator: Sketch 52.2 (67145) - http://www.bohemiancoding.com/sketch -->
    <title>printer_black</title>
    <desc>Created with Sketch.</desc>
    <g id="Страница-квартиры" stroke="none" stroke-width="1" fill="none" fill-rule="evenodd">
        <g id="страница_квартиры_A136" transform="translate(-945.000000, -715.000000)" fill="#3B152A" fill-rule="nonzero">
            <g id="Group" transform="translate(945.000000, 715.000000)">
                <path d="M22.9101562,5.78819273 L17.1219635,0 L7.08984375,0 L7.08984375,8.84765625 L0,8.84765625 L0,22.9101562 L7.08984375,22.9101562 L7.08984375,30 L22.9101562,30 L22.9101562,22.9101562 L30,22.9101562 L30,8.84765625 L22.9101562,8.84765625 L22.9101562,5.78819273 Z M17.6367188,3.00086977 L19.9092865,5.2734375 L17.6367188,5.2734375 L17.6367188,3.00086977 Z M8.84765625,1.7578125 L15.8789063,1.7578125 L15.8789063,7.03125 L21.1523438,7.03125 L21.1523438,8.84765625 L8.84765625,8.84765625 L8.84765625,1.7578125 Z M5.33203125,21.1523438 L5.33203125,19.3940735 L7.08984375,19.3940735 L7.08984375,21.1523438 L5.33203125,21.1523438 Z M8.84765625,28.2421875 L8.84765625,19.3940735 L21.1523438,19.3940735 L21.1523438,28.2421875 L8.84765625,28.2421875 Z M22.9101562,19.3945312 L24.6679688,19.3945312 L24.6679688,21.1523438 L22.9101562,21.1523438 L22.9101562,19.3945312 Z M28.2421875,21.1523438 L26.4257812,21.1523438 L26.4257812,17.6367188 L3.57421875,17.6367188 L3.57421875,21.1523438 L1.7578125,21.1523438 L1.7578125,10.6054688 L28.2421875,10.6054688 L28.2421875,21.1523438 Z M10.6054688,21.1523438 L19.3945312,21.1523438 L19.3945312,22.9101562 L10.6054688,22.9101562 L10.6054688,21.1523438 Z M10.6054688,24.6679688 L19.3945312,24.6679688 L19.3945312,26.4257812 L10.6054688,26.4257812 L10.6054688,24.6679688 Z M3.57421875,12.3632812 L3.57421875,14.1210938 L5.33203125,14.1210938 L5.33203125,12.3632812 L3.57421875,12.3632812 Z M7.08984375,12.3632812 L7.08984375,14.1210938 L8.84765625,14.1210938 L8.84765625,12.3632812 L7.08984375,12.3632812 Z" id="printer_black"></path>
            </g>
        </g>
    </g>
</svg>